<?xml version="1.0" encoding="UTF-8"?>
<svg width="17px" height="17px" viewBox="0 0 17 17" version="1.1" xmlns="http://www.w3.org/2000/svg" xmlns:xlink="http://www.w3.org/1999/xlink">
    <!-- Generator: Sketch 48.2 (47327) - http://www.bohemiancoding.com/sketch -->
    <title>add-circle-outline copy</title>
    <desc>Created with Sketch.</desc>
    <defs></defs>
    <g id="Filter" stroke="none" stroke-width="1" fill="none" fill-rule="evenodd" transform="translate(-224.000000, -968.000000)" fill-opacity="0.5">
        <g fill="#FFFFFF" id="Color">
            <g transform="translate(0.000000, 907.000000)">
                <g id="add-circle-outline-copy" transform="translate(232.313708, 69.313708) rotate(45.000000) translate(-232.313708, -69.313708) translate(224.313708, 61.313708)">
                    <path d="M9,3 L7,3 L7,7 L3,7 L3,9 L7,9 L7,13 L9,13 L9,9 L13,9 L13,7 L9,7 L9,3 L9,3 Z M8,16 C3.6,16 -5.68434189e-14,12.4 -5.68434189e-14,8 C-5.68434189e-14,3.6 3.6,-5.68434189e-14 8,-5.68434189e-14 C12.4,-5.68434189e-14 16,3.6 16,8 C16,12.4 12.4,16 8,16 L8,16 Z" id="Shape"></path>
                </g>
            </g>
        </g>
    </g>
</svg>