<?xml version="1.0" encoding="UTF-8"?>
<svg width="27px" height="13px" viewBox="0 0 27 13" version="1.1" xmlns="http://www.w3.org/2000/svg" xmlns:xlink="http://www.w3.org/1999/xlink">
    <!-- Generator: Sketch 48.2 (47327) - http://www.bohemiancoding.com/sketch -->
    <title>car</title>
    <desc>Created with Sketch.</desc>
    <defs></defs>
    <g id="Technostor-Product-Page" stroke="none" stroke-width="1" fill="none" fill-rule="evenodd" transform="translate(-970.000000, -609.000000)">
        <g id="item-main" transform="translate(135.000000, 206.000000)" fill="#1AA758" fill-rule="nonzero">
            <g id="Group-2" transform="translate(835.000000, 397.000000)">
                <path d="M18.0415787,6 L7.73210514,6 C7.38263147,6 7.076842,6.30578947 7.076842,6.65526315 L7.076842,15.9599998 C7.076842,16.3094735 7.38263147,16.615263 7.73210514,16.615263 L9.3047367,16.615263 C9.61052617,17.663684 10.5278946,18.4063156 11.663684,18.4063156 C12.7994735,18.4063156 13.7168419,17.663684 14.0226314,16.615263 L18.0415787,16.615263 C18.3910523,16.615263 18.6968418,16.3094735 18.6968418,15.9599998 L18.6968418,6.65526315 C18.6968418,6.30578947 18.3910523,6 18.0415787,6 Z M11.663684,17.0957893 C11.0521051,17.0957893 10.5278946,16.5715788 10.5278946,15.9599998 C10.5278946,15.3484209 11.0521051,14.8242104 11.663684,14.8242104 C12.275263,14.8242104 12.7994735,15.3484209 12.7994735,15.9599998 C12.7994735,16.5715788 12.275263,17.0957893 11.663684,17.0957893 Z M17.3863155,15.3047367 L13.9789472,15.3047367 C13.6731577,14.2563157 12.7557893,13.5136841 11.6199998,13.5136841 C10.4842104,13.5136841 9.56684196,14.2563157 9.26105249,15.3047367 L8.34368408,15.3047367 L8.34368408,7.3105263 L17.3426313,7.3105263 L17.3426313,15.3047367 L17.3863155,15.3047367 Z M3.01421048,8.53368417 L0.655263148,8.53368417 C0.305789469,8.53368417 0,8.2278947 0,7.87842102 C0,7.52894734 0.305789469,7.22315788 0.655263148,7.22315788 L3.01421048,7.22315788 C3.36368416,7.22315788 3.66947363,7.52894734 3.66947363,7.87842102 C3.66947363,8.2278947 3.40736837,8.53368417 3.01421048,8.53368417 Z M4.45578941,11.2857894 L2.09684207,11.2857894 C1.74736839,11.2857894 1.44157893,10.9799999 1.44157893,10.6305262 C1.44157893,10.2810526 1.74736839,9.9752631 2.09684207,9.9752631 L4.45578941,9.9752631 C4.80526308,9.9752631 5.11105255,10.2810526 5.11105255,10.6305262 C5.11105255,10.9799999 4.80526308,11.2857894 4.45578941,11.2857894 Z M6.50894727,13.3826315 C6.50894727,13.7321051 6.2031578,14.0378946 5.85368412,14.0378946 L3.49473679,14.0378946 C3.14526311,14.0378946 2.83947364,13.7321051 2.83947364,13.3826315 C2.83947364,13.0331578 3.14526311,12.7273683 3.49473679,12.7273683 L5.85368412,12.7273683 C6.2031578,12.7273683 6.50894727,13.0331578 6.50894727,13.3826315 Z M26.1231575,12.2905262 L23.4147365,8.09684207 C23.2836839,7.92210523 23.0652628,7.7910526 22.8468418,7.7910526 L19.570526,7.7910526 L19.570526,9.1015789 L22.4973681,9.1015789 L24.8999996,12.8584209 L24.8999996,15.3484209 L24.3757891,15.3484209 C24.0699996,14.2999999 23.1526312,13.5573683 22.0168418,13.5573683 C20.6626313,13.5573683 19.570526,14.6494736 19.570526,16.0036841 C19.570526,17.3578946 20.6626313,18.4499998 22.0168418,18.4499998 C23.1526312,18.4499998 24.0699996,17.7073682 24.3757891,16.6589472 L25.5552628,16.6589472 C25.9047364,16.6589472 26.2105259,16.3531577 26.2105259,16.0036841 L26.2105259,12.6399999 C26.2105259,12.5089473 26.1668417,12.3778946 26.1231575,12.2905262 Z M22.0168418,17.0957893 C21.4052628,17.0957893 20.8810523,16.5715788 20.8810523,15.9599998 C20.8810523,15.3484209 21.4052628,14.8242104 22.0168418,14.8242104 C22.6284207,14.8242104 23.1526312,15.3484209 23.1526312,15.9599998 C23.1526312,16.5715788 22.6284207,17.0957893 22.0168418,17.0957893 Z" id="car"></path>
            </g>
        </g>
    </g>
</svg>