<?xml version="1.0" encoding="UTF-8"?>
<svg width="15px" height="15px" viewBox="0 0 15 15" version="1.1" xmlns="http://www.w3.org/2000/svg" xmlns:xlink="http://www.w3.org/1999/xlink">
    <!-- Generator: Sketch 48.2 (47327) - http://www.bohemiancoding.com/sketch -->
    <title>gift</title>
    <desc>Created with Sketch.</desc>
    <defs></defs>
    <g id="Technostor-Product-Page-Admin" stroke="none" stroke-width="1" fill="none" fill-rule="evenodd" transform="translate(-1048.000000, -766.000000)">
        <g id="item-main" transform="translate(135.000000, 206.000000)" fill="#D0021B" fill-rule="nonzero">
            <g id="Button-1-click-Copy" transform="translate(835.000000, 545.000000)">
                <g id="gift" transform="translate(78.000000, 15.000000)">
                    <path d="M5.50000001,0 C4.12521668,0 3.00000001,1.10075042 3.00000001,2.44565191 C3.00000001,2.99527304 3.18911668,3.50343712 3.50520001,3.91304305 L0.499999999,3.91304305 C0.2382,3.91306914 3.33333333e-05,4.14607292 0,4.40217343 L0,7.33695735 C3.33333333e-05,7.59304972 0.2382,7.82605513 0.499999999,7.82608774 L1.00000002,7.82608774 L1.00000002,14.5108696 C1.00003335,14.766962 1.23820002,14.9999674 1.50000002,15 L13.5,15 C13.7618,14.9999674 13.9999667,14.766962 14,14.5108696 L14,7.82608774 L14.5,7.82608774 C14.7618,7.82605513 14.9999667,7.59304972 15,7.33695735 L15,4.40217343 C14.9999667,4.14607292 14.7618,3.91306914 14.5,3.91304305 L11.4948,3.91304305 C11.8108833,3.50343712 12,2.99527304 12,2.44565191 C12,1.10075042 10.8747833,0 9.50000001,0 C8.68446667,0 7.95710001,0.392556479 7.50000001,0.98845098 C7.04290001,0.392556479 6.31553334,0 5.50000001,0 Z M5.50000001,0.978260763 C6.33431668,0.978260763 7.00000001,1.62944982 7.00000001,2.44565191 L7.00000001,3.91304305 L5.50000001,3.91304305 C4.66566668,3.91304305 4.00000001,3.26183932 4.00000001,2.44565191 C4.00000001,1.62944493 4.66565001,0.978260763 5.50000001,0.978260763 Z M9.50000001,0.978260763 C10.33435,0.978260763 11,1.62944493 11,2.44565191 C11,3.26183932 10.3343333,3.91304305 9.50000001,3.91304305 L8.00000001,3.91304305 L8.00000001,2.44565191 C8.00000001,1.62944493 8.66565001,0.978260763 9.50000001,0.978260763 Z M1.00000002,4.89130382 C3.00000001,4.89130382 5.00000001,4.89130382 7.00000001,4.89130382 L7.00000001,6.84782534 C5.00000001,6.84782534 3.00000001,6.84782534 1.00000002,6.84782534 L1.00000002,4.89130382 Z M8.00000001,4.89130382 C10,4.89130382 12,4.89130382 14,4.89130382 L14,6.84782534 C12,6.84782534 10,6.84782534 8.00000001,6.84782534 L8.00000001,4.89130382 Z M2.00000001,7.82608774 L7.00000001,7.82608774 L7.00000001,14.0217392 L2.00000001,14.0217392 L2.00000001,7.82608774 Z M8.00000001,7.82608774 L13,7.82608774 L13,14.0217392 L8.00000001,14.0217392 L8.00000001,7.82608774 Z" id="Shape"></path>
                </g>
            </g>
        </g>
    </g>
</svg>