<?xml version="1.0" encoding="UTF-8"?>
<svg width="24px" height="25px" viewBox="0 0 24 25" version="1.1" xmlns="http://www.w3.org/2000/svg" xmlns:xlink="http://www.w3.org/1999/xlink">
    <!-- Generator: Sketch 48.2 (47327) - http://www.bohemiancoding.com/sketch -->
    <title>ico9</title>
    <desc>Created with Sketch.</desc>
    <defs></defs>
    <g id="Technostor-Mobile-Menu" stroke="none" stroke-width="1" fill="none" fill-rule="evenodd" transform="translate(-13.000000, -522.000000)">
        <g id="Catalog" transform="translate(0.000000, 60.000000)">
            <g id="Drop-Menu-Copy-9" transform="translate(0.000000, 450.000000)">
                <g id="ico9" transform="translate(10.000000, 10.000000)">
                    <rect id="Rectangle-4" fill-opacity="0" fill="#FF0000" x="0" y="0" width="30" height="30"></rect>
                    <g id="Group" transform="translate(3.000000, 2.000000)" fill="#333333" fill-rule="nonzero">
                        <path d="M22,11.1333333 L20.0666667,11.1333333 L20.0666667,3.6 C20.0666667,1.86666667 18.6666667,0.4 16.8666667,0.4 C15.0666667,0.4 13.6666667,1.8 13.6666667,3.6 L13.6666667,3.93333333 C13.6666667,4.33333333 14,4.6 14.3333333,4.6 C14.7333333,4.6 15,4.33333333 15,3.93333333 L15,3.6 C15,2.6 15.8666667,1.73333333 16.8666667,1.73333333 C17.8666667,1.73333333 18.7333333,2.53333333 18.7333333,3.6 L18.7333333,11.1333333 L2,11.1333333 C0.866666667,11.1333333 0,12.0666667 0,13.1333333 L0,14.8 C0,18.4 2.4,21.4666667 5.66666667,22.4 L5.66666667,23.8666667 C5.66666667,24.2666667 6,24.5333333 6.33333333,24.5333333 C6.66666667,24.5333333 7,24.2666667 7,23.8666667 L7,22.6666667 C7.33333333,22.7333333 7.66666667,22.7333333 8,22.7333333 L16,22.7333333 C16.3333333,22.7333333 16.6666667,22.7333333 17,22.6666667 L17,23.8666667 C17,24.2666667 17.3333333,24.5333333 17.6666667,24.5333333 C18,24.5333333 18.3333333,24.2666667 18.3333333,23.8666667 L18.3333333,22.4 C21.6,21.4 24,18.3333333 24,14.8 L24,13.1333333 C24,12 23.1333333,11.1333333 22,11.1333333 Z M16,21.4666667 L8,21.4666667 C4.53333333,21.4666667 1.73333333,18.8666667 1.4,15.4666667 L22.6666667,15.4666667 C22.3333333,18.8 19.4666667,21.4666667 16,21.4666667 Z M22.6666667,14.1333333 L1.33333333,14.1333333 L1.33333333,13.1333333 C1.33333333,12.7333333 1.66666667,12.4666667 2,12.4666667 L22,12.4666667 C22.3333333,12.4666667 22.6666667,12.7333333 22.6666667,13.1333333 L22.6666667,14.1333333 Z" id="Shape"></path>
                        <path d="M14.3333333,9.73333333 C13.9333333,9.73333333 13.6666667,9.46666667 13.6666667,9.06666667 L13.6666667,6.46666667 C13.6666667,6.06666667 13.9333333,5.8 14.3333333,5.8 C14.7333333,5.8 15,6.06666667 15,6.46666667 L15,9.06666667 C15,9.4 14.7333333,9.73333333 14.3333333,9.73333333 Z" id="Shape"></path>
                        <path d="M11.6666667,9.73333333 C11.6,9.73333333 11.5333333,9.73333333 11.4666667,9.73333333 C11.1333333,9.66666667 10.8666667,9.26666667 11,8.93333333 L11.6666667,6.33333333 C11.7333333,6 12.1333333,5.73333333 12.4666667,5.86666667 C12.8,5.93333333 13.0666667,6.33333333 12.9333333,6.66666667 L12.2666667,9.26666667 C12.2666667,9.53333333 12,9.73333333 11.6666667,9.73333333 Z" id="Shape"></path>
                        <path d="M17,9.73333333 C16.7333333,9.73333333 16.4,9.53333333 16.3333333,9.26666667 L15.6666667,6.66666667 C15.6,6.33333333 15.8,5.93333333 16.1333333,5.86666667 C16.4666667,5.8 16.8666667,6 16.9333333,6.33333333 L17.6,8.93333333 C17.6666667,9.26666667 17.4666667,9.66666667 17.1333333,9.73333333 C17.1333333,9.66666667 17.0666667,9.73333333 17,9.73333333 Z" id="Shape"></path>
                    </g>
                </g>
            </g>
        </g>
    </g>
</svg>