<?xml version="1.0" encoding="UTF-8"?>
<svg width="24px" height="20px" viewBox="0 0 24 20" version="1.1" xmlns="http://www.w3.org/2000/svg" xmlns:xlink="http://www.w3.org/1999/xlink">
    <!-- Generator: Sketch 48.2 (47327) - http://www.bohemiancoding.com/sketch -->
    <title>ico13</title>
    <desc>Created with Sketch.</desc>
    <defs></defs>
    <g id="Technostor-Mobile-Menu" stroke="none" stroke-width="1" fill="none" fill-rule="evenodd" transform="translate(-12.000000, -875.000000)">
        <g id="Catalog" transform="translate(0.000000, 60.000000)">
            <g id="Drop-Menu-Copy-13" transform="translate(0.000000, 800.000000)">
                <g id="ico13" transform="translate(10.000000, 10.000000)">
                    <rect id="Rectangle-4" fill-opacity="0" fill="#FF0000" x="0" y="0" width="30" height="30"></rect>
                    <path d="M24.24,23.4095427 L22.64,23.4095427 L22.64,21.3419483 C24.64,20.3479125 26,18.3200795 26,15.9343936 C26,12.5944334 23.28,9.89065606 19.92,9.89065606 L19.32,9.89065606 L19.32,7.7833002 L24.4,7.7833002 C24.84,7.7833002 25.2,7.42544732 25.2,6.98807157 C25.2,6.55069583 24.84,6.19284294 24.4,6.19284294 L19.32,6.19284294 L19.32,5.79522863 C19.32,5.35785288 18.96,5 18.52,5 C18.08,5 17.72,5.35785288 17.72,5.79522863 L17.72,6.19284294 L12.64,6.19284294 C12.2,6.19284294 11.84,6.55069583 11.84,6.98807157 C11.84,7.42544732 12.2,7.7833002 12.64,7.7833002 L17.72,7.7833002 L17.72,9.89065606 L17.32,9.89065606 C16.96,9.89065606 12.36,9.97017893 9,10.0497018 C8.36,8.85685885 7.12,8.06163022 5.72,8.06163022 C3.68,8.06163022 2,9.73161034 2,11.7594433 C2,13.7872763 3.68,15.4572565 5.72,15.4572565 C6.4,15.4572565 7.08,15.2584493 7.6,14.9403579 L11.32,16.8489066 C11.64,18.8369781 12.88,20.4671968 14.6,21.3419483 L14.6,23.4095427 L13,23.4095427 C12.56,23.4095427 12.2,23.7673956 12.2,24.2047714 C12.2,24.6421471 12.56,25 13,25 L24.2,25 C24.64,25 25,24.6421471 25,24.2047714 C25,23.7673956 24.68,23.4095427 24.24,23.4095427 Z M5.72,13.8667992 C4.56,13.8667992 3.6,12.9125249 3.6,11.7594433 C3.6,10.6063618 4.56,9.65208748 5.72,9.65208748 C6.88,9.65208748 7.84,10.6063618 7.84,11.7594433 C7.84,12.9125249 6.88,13.8667992 5.72,13.8667992 Z M19.32,11.4811133 L19.92,11.4811133 C22.12,11.4811133 23.92,13.0715706 24.32,15.139165 L19.32,15.139165 L19.32,11.4811133 Z M12.88,16.2524851 C12.84,15.9741551 12.68,15.7355865 12.44,15.6163022 L8.84,13.7475149 C9.2,13.1510934 9.44,12.4751491 9.44,11.7594433 C9.44,11.7196819 9.44,11.6799205 9.44,11.640159 C13.08,11.5606362 17.04,11.4811133 17.36,11.4811133 L17.76,11.4811133 L17.76,15.9343936 C17.76,16.3717694 18.12,16.7296223 18.56,16.7296223 L24.36,16.7296223 C24,18.7972167 22.16,20.387674 19.96,20.387674 L17.36,20.387674 C15,20.3479125 13.04,18.5586481 12.88,16.2524851 Z M21.04,23.4095427 L16.24,23.4095427 L16.24,21.8588469 C16.6,21.9383698 16.96,21.9781312 17.36,21.9781312 L19.96,21.9781312 C20.32,21.9781312 20.72,21.9383698 21.08,21.8588469 L21.08,23.4095427 L21.04,23.4095427 Z" id="Shape" fill="#333333" fill-rule="nonzero"></path>
                </g>
            </g>
        </g>
    </g>
</svg>