<?xml version="1.0" encoding="UTF-8"?>
<svg width="21px" height="20px" viewBox="0 0 21 20" version="1.1" xmlns="http://www.w3.org/2000/svg" xmlns:xlink="http://www.w3.org/1999/xlink">
    <!-- Generator: Sketch 48.2 (47327) - http://www.bohemiancoding.com/sketch -->
    <title>ico11</title>
    <desc>Created with Sketch.</desc>
    <defs></defs>
    <g id="Technostor-Mobile-Menu" stroke="none" stroke-width="1" fill="none" fill-rule="evenodd" transform="translate(-14.000000, -625.000000)">
        <g id="Catalog" transform="translate(0.000000, 60.000000)">
            <g id="Drop-Menu-Copy-11" transform="translate(0.000000, 550.000000)">
                <g id="ico11" transform="translate(10.000000, 10.000000)">
                    <rect id="Rectangle-4" fill-opacity="0" fill="#FF0000" x="0" y="0" width="30" height="30"></rect>
                    <g id="noun_1075156_cc" transform="translate(4.000000, 5.000000)" fill="#333333" fill-rule="nonzero">
                        <path d="M14,5.95744681 L14,1.69990783 C14,0.76107466 14.7826133,0 15.7483387,0 L17.5,0 C19.4329966,0 21,1.52244334 21,3.40420706 L21,5.95966664 C21,5.96021587 20.9999997,5.96076506 20.9999992,5.96131421 C20.9978514,11.1302027 16.6901272,15.3191489 11.375,15.3191489 C6.05972671,15.3191489 1.75132604,11.1297542 1.75000031,5.95983374 C1.7500001,5.9596654 1.75,5.95949706 1.75,5.95932872 L1.75,3.40425532 L0.87408699,3.40425532 C0.391342076,3.40425532 0,3.02649803 0,2.55319149 C0,2.08316191 0.392989023,1.70212766 0.87408699,1.70212766 L1.7504565,1.70212766 L2.625,1.70212766 C3.10824916,1.70212766 3.5,2.08518135 3.5,2.54979448 L3.5,5.95744681 L14,5.95744681 Z M14.4375,7.65957447 L3.69507295,7.65957447 C4.49069932,11.0710083 7.62681714,13.6170213 11.375,13.6170213 C15.1234052,13.6170213 18.2593169,11.0708388 19.054921,7.65957447 L14.4375,7.65957447 Z M15.75,5.95744681 L19.25,5.95744681 L19.25,3.40420706 C19.25,2.4632147 18.4672307,1.70212766 17.5,1.70212766 L15.75,1.70212766 L15.75,5.95744681 Z M5.25,20 C3.80025253,20 2.625,18.8568972 2.625,17.4468085 C2.625,16.0367198 3.80025253,14.893617 5.25,14.893617 C6.69974747,14.893617 7.875,16.0367198 7.875,17.4468085 C7.875,18.8568972 6.69974747,20 5.25,20 Z M5.25,18.2978723 C5.73324916,18.2978723 6.125,17.9168381 6.125,17.4468085 C6.125,16.9767789 5.73324916,16.5957447 5.25,16.5957447 C4.76675084,16.5957447 4.375,16.9767789 4.375,17.4468085 C4.375,17.9168381 4.76675084,18.2978723 5.25,18.2978723 Z M17.5,20 C16.0502525,20 14.875,18.8568972 14.875,17.4468085 C14.875,16.0367198 16.0502525,14.893617 17.5,14.893617 C18.9497475,14.893617 20.125,16.0367198 20.125,17.4468085 C20.125,18.8568972 18.9497475,20 17.5,20 Z M17.5,18.2978723 C17.9832492,18.2978723 18.375,17.9168381 18.375,17.4468085 C18.375,16.9767789 17.9832492,16.5957447 17.5,16.5957447 C17.0167508,16.5957447 16.625,16.9767789 16.625,17.4468085 C16.625,17.9168381 17.0167508,18.2978723 17.5,18.2978723 Z" id="Shape"></path>
                    </g>
                </g>
            </g>
        </g>
    </g>
</svg>