<?xml version="1.0" encoding="UTF-8"?>
<svg width="22px" height="20px" viewBox="0 0 22 20" version="1.1" xmlns="http://www.w3.org/2000/svg" xmlns:xlink="http://www.w3.org/1999/xlink">
    <!-- Generator: Sketch 48.2 (47327) - http://www.bohemiancoding.com/sketch -->
    <title>ico8</title>
    <desc>Created with Sketch.</desc>
    <defs></defs>
    <g id="Technostor-Mobile-Menu" stroke="none" stroke-width="1" fill="none" fill-rule="evenodd" transform="translate(-14.000000, -475.000000)">
        <g id="Catalog" transform="translate(0.000000, 60.000000)">
            <g id="Drop-Menu-Copy-8" transform="translate(0.000000, 400.000000)">
                <g id="ico8" transform="translate(10.000000, 10.000000)">
                    <rect id="Rectangle-4" fill-opacity="0" fill="#FF0000" x="0" y="0" width="30" height="30"></rect>
                    <g id="noun_1263173_cc" transform="translate(4.000000, 5.000000)" fill="#333333" fill-rule="nonzero">
                        <path d="M20.7334118,7.91694118 L19.824,7.91694118 C19.7729412,7.76258824 19.7101176,7.61035294 19.6324706,7.46705882 C19.4569412,7.14117647 19.2265882,6.86141176 18.9496471,6.63858824 C18.6781176,6.41717647 18.3710588,6.25576471 18.0369412,6.15882353 C17.7042353,6.06376471 17.3609412,6.03882353 17.0171765,6.084 C16.6595294,6.13082353 16.3218824,6.25270588 16.0171765,6.44282353 C15.8623529,6.53835294 15.7162353,6.65058824 15.5851765,6.776 C15.4574118,6.89694118 15.3402353,7.03247059 15.2385882,7.17623529 C15.1870588,7.248 15.1407059,7.32376471 15.0988235,7.396 C15.0538824,7.47270588 15.0134118,7.55270588 14.9764706,7.63317647 C14.9383529,7.71505882 14.9047059,7.80047059 14.8762353,7.88682353 C14.8724706,7.89694118 14.872,7.90705882 14.8694118,7.91717647 L13.9835294,7.91717647 C13.6567059,7.91717647 13.392,8.18188235 13.392,8.50870588 L13.392,9.96588235 C13.392,12.5710588 14.4343529,14.2089412 15.7,14.816 C15.6976471,14.8357647 15.6941176,14.8550588 15.6941176,14.8752941 C15.6941176,15.5764706 16.1305882,16.1762353 16.7461176,16.4207059 C16.5687059,17.7592941 15.4225882,18.7967059 14.036,18.7967059 C12.5277647,18.7967059 11.3007059,17.5696471 11.3007059,16.0609412 L11.3007059,3.78894118 C12.6792941,3.61294118 13.5047059,2.77647059 13.6807059,1.37717647 L18.8475294,1.37717647 C19.1743529,1.37717647 19.4390588,1.11247059 19.4390588,0.785647059 C19.4390588,0.459294118 19.1743529,0.194588235 18.8475294,0.194588235 L2.65482353,0.194588235 C2.328,0.194588235 2.06329412,0.459294118 2.06329412,0.785647059 C2.06329412,1.11247059 2.328,1.37717647 2.65482353,1.37717647 L7.77717647,1.37717647 C7.95129412,2.76376471 8.76258824,3.59811765 10.1181176,3.78470588 L10.1181176,15.8578824 C10.0945882,15.9214118 10.08,15.9894118 10.08,16.0609412 C10.08,17.5701176 8.85247059,18.7976471 7.34423529,18.7976471 C5.96682353,18.7976471 4.82776471,17.7736471 4.63882353,16.448 C5.29223529,16.2232941 5.76376471,15.6037647 5.76376471,14.8752941 C5.76376471,14.8550588 5.75952941,14.8362353 5.75788235,14.8164706 C7.02352941,14.2089412 8.06588235,12.5715294 8.06588235,9.96588235 L8.06588235,8.50870588 C8.06588235,8.18188235 7.80117647,7.91717647 7.47482353,7.91717647 L6.56588235,7.91717647 C6.51294118,7.76047059 6.45011765,7.60823529 6.37388235,7.46635294 C6.19741176,7.13952941 5.96682353,6.86023529 5.69105882,6.63858824 C5.41905882,6.41670588 5.112,6.25529412 4.77835294,6.15929412 C4.44611765,6.06376471 4.10329412,6.03835294 3.75858824,6.084 C3.40141176,6.13082353 3.06423529,6.25270588 2.76047059,6.44235294 C2.60517647,6.53741176 2.45858824,6.65011765 2.32658824,6.776 C2.19411765,6.90094118 2.07623529,7.03788235 1.97952941,7.17764706 C1.92847059,7.24894118 1.88211765,7.32423529 1.83788235,7.40047059 C1.79341176,7.47764706 1.75105882,7.55858824 1.71388235,7.64305882 C1.68023529,7.71952941 1.64705882,7.79929412 1.61905882,7.87929412 C1.61435294,7.89176471 1.61364706,7.90447059 1.60988235,7.91694118 L0.725176471,7.91694118 C0.398352941,7.91694118 0.133647059,8.18164706 0.133647059,8.50847059 L0.133647059,9.96564706 C0.133647059,12.5712941 1.176,14.2091765 2.44211765,14.8162353 C2.43976471,14.836 2.43623529,14.8548235 2.43623529,14.8750588 C2.43623529,15.5592941 2.85176471,16.148 3.44352941,16.4035294 C3.61764706,18.404 5.29976471,19.9797647 7.34423529,19.9797647 C8.76141176,19.9797647 10.0023529,19.22 10.6903529,18.0891765 C11.3783529,19.2197647 12.6181176,19.9788235 14.036,19.9788235 C16.0708235,19.9788235 17.7472941,18.4195294 17.9362353,16.4334118 C18.5689412,16.1981176 19.0225882,15.5891765 19.0225882,14.8750588 C19.0225882,14.8548235 19.0183529,14.836 19.0167059,14.8162353 C20.2823529,14.2091765 21.3247059,12.5712941 21.3247059,9.96564706 L21.3247059,8.50847059 C21.3244706,8.18164706 21.0597647,7.91694118 20.7334118,7.91694118 Z M3.66964706,15.0865882 L4.53035294,15.0865882 C4.45176471,15.2461176 4.28917647,15.3567059 4.09976471,15.3567059 C3.91035294,15.3567059 3.74823529,15.2461176 3.66964706,15.0865882 Z M2.94611765,7.85788235 C3.00117647,7.77882353 3.06611765,7.70352941 3.14047059,7.63270588 C3.21317647,7.56376471 3.29247059,7.50258824 3.38164706,7.448 C3.54564706,7.34541176 3.72447059,7.28070588 3.91294118,7.256 C4.09576471,7.232 4.27647059,7.24541176 4.45011765,7.29552941 C4.62988235,7.34752941 4.79576471,7.43482353 4.94635294,7.55741176 C5.06870588,7.65576471 5.16964706,7.77976471 5.25835294,7.91717647 L2.90823529,7.91717647 C2.92094118,7.89717647 2.93152941,7.87835294 2.94611765,7.85788235 Z M1.31623529,9.96564706 L1.31623529,9.09929412 L6.88329412,9.09929412 L6.88329412,9.96564706 C6.88329412,12.8345882 5.49505882,13.904 4.62,13.904 L3.58,13.904 C2.70494118,13.9042353 1.31623529,12.8348235 1.31623529,9.96564706 Z M8.96682353,1.37717647 L12.4903529,1.37717647 C12.34,2.26776471 11.7995294,2.64423529 10.7289412,2.64423529 C9.65764706,2.644 9.11717647,2.26776471 8.96682353,1.37717647 Z M16.2016471,7.86141176 C16.2609412,7.77811765 16.3265882,7.70141176 16.3992941,7.63247059 C16.472,7.56352941 16.5517647,7.50188235 16.64,7.44776471 C16.8035294,7.34517647 16.9823529,7.28094118 17.1717647,7.25576471 C17.3536471,7.23176471 17.5352941,7.24517647 17.7094118,7.29529412 C17.8887059,7.34729412 18.0545882,7.43458824 18.2047059,7.55670588 C18.3270588,7.65552941 18.428,7.77952941 18.5167059,7.91694118 L16.1665882,7.91694118 C16.1783529,7.89811765 16.1884706,7.87976471 16.2016471,7.86141176 Z M17.3583529,15.3569412 C17.1689412,15.3569412 17.0058824,15.2461176 16.9272941,15.0868235 L17.7889412,15.0868235 C17.7105882,15.2461176 17.5477647,15.3569412 17.3583529,15.3569412 Z M20.1421176,9.96564706 C20.1421176,12.8345882 18.7543529,13.904 17.8792941,13.904 L16.8383529,13.904 C15.9628235,13.904 14.5745882,12.8345882 14.5745882,9.96564706 L14.5745882,9.09929412 L20.1421176,9.09929412 L20.1421176,9.96564706 Z" id="Shape"></path>
                    </g>
                </g>
            </g>
        </g>
    </g>
</svg>