<?xml version="1.0" encoding="UTF-8"?>
<svg width="13px" height="24px" viewBox="0 0 13 24" version="1.1" xmlns="http://www.w3.org/2000/svg" xmlns:xlink="http://www.w3.org/1999/xlink">
    <!-- Generator: Sketch 48.2 (47327) - http://www.bohemiancoding.com/sketch -->
    <title>ico1</title>
    <desc>Created with Sketch.</desc>
    <defs></defs>
    <g id="Technostor-Mobile-Menu" stroke="none" stroke-width="1" fill="none" fill-rule="evenodd" transform="translate(-18.000000, -123.000000)">
        <g id="Catalog" transform="translate(0.000000, 60.000000)">
            <g id="Drop-Menu-Copy" transform="translate(0.000000, 50.000000)">
                <g id="ico1" transform="translate(10.000000, 10.000000)">
                    <rect id="Rectangle-4" fill-opacity="0" fill="#FF0000" x="0" y="0" width="30" height="30"></rect>
                    <g id="noun_587801_cc" transform="translate(8.000000, 3.000000)" fill="#333333" fill-rule="nonzero">
                        <path d="M11.0703329,0 L1.93422174,0 C0.868799362,0 0,0.89781453 0,1.99881867 L0,21.3349084 C0,22.4359126 0.868799362,23.3337271 1.93422174,23.3337271 L1.94793962,23.3337271 C1.94793962,23.7023036 2.2360152,24 2.5926802,24 L3.42489854,24 C3.78156354,24 4.06963912,23.7023036 4.06963912,23.3337271 L8.93034292,23.3337271 C8.93034292,23.7023036 9.21841849,24 9.57508349,24 L10.4073018,24 C10.7639668,24 11.0520424,23.7023036 11.0520424,23.3337271 L11.0657603,23.3337271 C12.1311827,23.3337271 12.999982,22.4359126 12.999982,21.3349084 L12.999982,1.99881867 C13.0045547,0.89781453 12.1357553,0 11.0703329,0 Z M1.93422174,1.33254578 L11.0703329,1.33254578 C11.4269979,1.33254578 11.7150735,1.63024217 11.7150735,1.99881867 L11.7150735,8.69462493 L1.28948116,8.69462493 L1.28948116,1.99881867 C1.28948116,1.63496751 1.57755674,1.33254578 1.93422174,1.33254578 Z M11.0703329,22.0059067 L1.93422174,22.0059067 C1.57755674,22.0059067 1.28948116,21.7082103 1.28948116,21.3396338 L1.28948116,10.031896 L11.7150735,10.031896 L11.7150735,13.0891908 L9.57965612,13.0891908 C9.22299112,13.0891908 8.93491554,13.3868872 8.93491554,13.7554637 C8.93491554,14.1240402 9.22299112,14.4217366 9.57965612,14.4217366 L11.7150735,14.4217366 L11.7150735,15.7542823 L10.8691373,15.7542823 C10.5124723,15.7542823 10.2243967,16.0519787 10.2243967,16.4205552 C10.2243967,16.7891317 10.5124723,17.0868281 10.8691373,17.0868281 L11.7150735,17.0868281 L11.7150735,21.3396338 C11.7150735,21.7034849 11.4269979,22.0059067 11.0703329,22.0059067 Z" id="Shape"></path>
                        <path d="M4,8 C4.55319149,8 5,7.64902507 5,7.21448468 L5,4.78551532 C5,4.35097493 4.55319149,4 4,4 C3.44680851,4 3,4.35097493 3,4.78551532 L3,7.21448468 C3,7.64902507 3.44680851,8 4,8 Z" id="Shape"></path>
                        <path d="M4,11 C3.44680851,11 3,11.315 3,11.705 L3,15.295 C3,15.685 3.44680851,16 4,16 C4.55319149,16 5,15.685 5,15.295 L5,11.705 C5,11.315 4.55319149,11 4,11 Z" id="Shape"></path>
                    </g>
                </g>
            </g>
        </g>
    </g>
</svg>