<?xml version="1.0" encoding="UTF-8"?>
<svg width="22px" height="24px" viewBox="0 0 22 24" version="1.1" xmlns="http://www.w3.org/2000/svg" xmlns:xlink="http://www.w3.org/1999/xlink">
    <!-- Generator: Sketch 48.2 (47327) - http://www.bohemiancoding.com/sketch -->
    <title>ico12</title>
    <desc>Created with Sketch.</desc>
    <defs></defs>
    <g id="Technostor-Mobile-Menu" stroke="none" stroke-width="1" fill="none" fill-rule="evenodd" transform="translate(-14.000000, -673.000000)">
        <g id="Catalog" transform="translate(0.000000, 60.000000)">
            <g id="Drop-Menu-Copy-12" transform="translate(0.000000, 600.000000)">
                <g id="ico12" transform="translate(10.000000, 10.000000)">
                    <rect id="Rectangle-4" fill-opacity="0" fill="#FF0000" x="0" y="0" width="30" height="30"></rect>
                    <g id="noun_1427402_cc" transform="translate(3.000000, 3.000000)" fill="#333333" fill-rule="nonzero">
                        <path d="M22.1212769,18.3786621 C21.5546875,17.8120728 20.8013306,17.5 20,17.5 C19.1986694,17.5 18.4453125,17.8120728 17.8786621,18.3786621 C17.3120728,18.9452515 17,19.6986694 17,20.5 C17,21.3013306 17.3120728,22.0546875 17.8787231,22.6213379 C18.4453125,23.1879272 19.1986694,23.5 20,23.5 C20.8013306,23.5 21.5546875,23.1879272 22.1213379,22.6213379 C22.6879272,22.0546875 23,21.3013306 23,20.5 C23,19.6986694 22.6879272,18.9452515 22.1212769,18.3786621 Z M21.0606689,21.5606689 C20.7677612,21.8535156 20.3839111,22 20,22 C19.6161499,22 19.2322388,21.8535156 18.9393311,21.5606689 C18.3535767,20.9748535 18.3535767,20.0250854 18.9393311,19.439331 C19.2322388,19.1464233 19.6161499,19 20,19 C20.3839111,19 20.7677612,19.1464233 21.0606689,19.4393311 C21.6464844,20.0250854 21.6464844,20.9748535 21.0606689,21.5606689 Z" id="Shape"></path>
                        <path d="M18.4169922,3.0756836 C16.7587891,1.4160156 14.5527344,0.4995117 12.2041016,0.4956055 C12.1992188,0.4956055 12.1933594,0.4956055 12.1884766,0.4956055 C9.8457032,0.4956055 7.647461,1.4042969 5.9970703,3.0556641 C5.2773438,3.7753906 4.6914063,4.621582 4.2529297,5.5708008 C4.2529297,5.5717774 4.2529297,5.5722656 4.2529297,5.5727539 C3.0605469,8.1582031 3.2167969,11.2011719 4.6347656,13.6591797 L1.21875,17.0771484 C0.9257812,17.3701172 0.9257812,17.8447265 1.21875,18.1376953 L3.3652344,20.2851562 C3.5058594,20.4257812 3.6962891,20.5048828 3.8955078,20.5048828 C4.0947265,20.5048828 4.2851562,20.4257812 4.4257812,20.2851562 L7.8408203,16.8671874 C10.2978516,18.2871093 13.3378906,18.4423827 15.921875,17.2490233 C15.9228516,17.2490233 15.9228516,17.2490233 15.9228516,17.2490233 C16.8720704,16.8105467 17.7177735,16.2236327 18.4375,15.5039061 C21.8564453,12.0825195 21.8466797,6.5078125 18.4169922,3.0756836 Z M3.8955078,18.6943359 L2.8095703,17.6074218 L4.4091797,16.0068359 L5.4951172,17.0927734 L3.8955078,18.6943359 Z M8.1533203,15.2939453 C8.0253906,15.2070312 7.8789062,15.165039 7.7324219,15.165039 C7.5390625,15.165039 7.3466797,15.2402343 7.2021485,15.3847656 L6.5556641,16.0322265 L5.4697266,14.9453124 L6.1171875,14.2978515 C6.3710938,14.0439452 6.4091797,13.6445312 6.2080078,13.3466796 C4.9912109,11.550293 4.6464844,9.2949219 5.2294922,7.2436523 L14.2519531,16.2734375 C12.2011719,16.8554688 9.9482422,16.5107422 8.1533203,15.2939453 Z M15.7548828,15.6552734 L5.8466797,5.7392578 C6.1767578,5.1362305 6.5820313,4.5917969 7.0576172,4.1162109 C8.4248047,2.7480468 10.2460938,1.9956054 12.1884766,1.9956054 C12.1923829,1.9956054 12.1972657,1.9956054 12.2021485,1.9956054 C14.1494141,1.9990234 15.9804688,2.7592773 17.3564454,4.1362304 C20.201172,6.9833984 20.2109376,11.6069335 17.3769532,14.4433593 C16.9013672,14.9189453 16.3574219,15.3251953 15.7548828,15.6552734 Z" id="Shape"></path>
                    </g>
                </g>
            </g>
        </g>
    </g>
</svg>