<?xml version="1.0" encoding="UTF-8"?>
<svg width="24px" height="19px" viewBox="0 0 24 19" version="1.1" xmlns="http://www.w3.org/2000/svg" xmlns:xlink="http://www.w3.org/1999/xlink">
    <!-- Generator: Sketch 48.2 (47327) - http://www.bohemiancoding.com/sketch -->
    <title>ico5</title>
    <desc>Created with Sketch.</desc>
    <defs></defs>
    <g id="Technostor-Mobile-Menu" stroke="none" stroke-width="1" fill="none" fill-rule="evenodd" transform="translate(-12.000000, -325.000000)">
        <g id="Catalog" transform="translate(0.000000, 60.000000)">
            <g id="Drop-Menu-Copy-5" transform="translate(0.000000, 250.000000)">
                <g id="ico5" transform="translate(10.000000, 10.000000)">
                    <rect id="Rectangle-4" fill-opacity="0" fill="#FF0000" x="0" y="0" width="30" height="30"></rect>
                    <g id="noun_589773_cc" transform="translate(2.342995, 5.000000)" fill="#333333" fill-rule="nonzero">
                        <g id="Group">
                            <path d="M18.4768116,0.00458937198 L7.51280193,0.00458937198 C7.15483092,0.00458937198 6.86570048,0.293719807 6.86570048,0.651690821 L6.86570048,1.67971014 L4.53429952,2.31304348 C4.25434783,2.3910628 4.05700483,2.64347826 4.05700483,2.93719807 L4.05700483,4.19468599 L0.647101449,4.19468599 C0.289130435,4.19468599 1.77635684e-15,4.48381643 1.77635684e-15,4.84178744 C1.77635684e-15,5.19975845 0.289130435,5.48888889 0.647101449,5.48888889 L4.05700483,5.48888889 L4.05700483,6.74637681 C4.05700483,7.04009662 4.25434783,7.29710145 4.53429952,7.3705314 L6.86570048,8.00386473 L6.86570048,9.03188406 C6.86570048,9.38985507 7.15483092,9.67898551 7.51280193,9.67898551 L12.6207729,9.67898551 L10.8400966,18.2152174 C10.7987923,18.407971 10.7483092,18.9954106 11.47343,18.9954106 L15.8562802,18.9954106 C16.1637681,18.9954106 16.4299517,18.7797101 16.4896135,18.481401 L18.3253623,9.67898551 L18.4722222,9.67898551 C21.1386473,9.67898551 23.3094203,7.50821256 23.3094203,4.84178744 C23.3140097,2.17536232 21.1432367,0.00458937198 18.4768116,0.00458937198 Z M6.86570048,6.66376812 L5.35120773,6.25072464 L5.35120773,3.43285024 L6.86570048,3.01980676 L6.86570048,6.66376812 Z M15.3330918,17.7012077 L12.27657,17.7012077 L13.9471014,9.67898551 L17.0036232,9.67898551 L15.3330918,17.7012077 Z M18.4768116,8.38478261 L8.15990338,8.38478261 L8.15990338,1.29879227 L18.4722222,1.29879227 C20.4272947,1.29879227 22.0152174,2.88671498 22.0152174,4.84178744 C22.0198068,6.7968599 20.4272947,8.38478261 18.4768116,8.38478261 Z" id="Shape"></path>
                            <path d="M18.9449275,2.90966184 L16.6089372,2.90966184 C16.2509662,2.90966184 15.9618357,3.19879227 15.9618357,3.55676329 C15.9618357,3.9147343 16.2509662,4.20386473 16.6089372,4.20386473 L18.9449275,4.20386473 C19.3028986,4.20386473 19.592029,3.9147343 19.592029,3.55676329 C19.592029,3.19879227 19.3028986,2.90966184 18.9449275,2.90966184 Z" id="Shape"></path>
                            <path d="M18.9449275,5.47971014 L16.6089372,5.47971014 C16.2509662,5.47971014 15.9618357,5.76884058 15.9618357,6.12681159 C15.9618357,6.48478261 16.2509662,6.77391304 16.6089372,6.77391304 L18.9449275,6.77391304 C19.3028986,6.77391304 19.592029,6.48478261 19.592029,6.12681159 C19.592029,5.76884058 19.3028986,5.47971014 18.9449275,5.47971014 Z" id="Shape"></path>
                            <path d="M10.8951691,11.0328502 C10.5463768,10.9502415 10.1975845,11.165942 10.1149758,11.5147343 L9.42657005,14.4198068 C9.34396135,14.768599 9.55966184,15.1219807 9.90845411,15.2 C10.2939614,15.2871981 10.6152174,15.0164251 10.6886473,14.7181159 L11.3770531,11.8130435 C11.4550725,11.4642512 11.239372,11.1154589 10.8951691,11.0328502 Z" id="Shape"></path>
                        </g>
                    </g>
                </g>
            </g>
        </g>
    </g>
</svg>