<?xml version="1.0" encoding="UTF-8"?>
<svg width="221px" height="42px" viewBox="0 0 221 42" version="1.1" xmlns="http://www.w3.org/2000/svg" xmlns:xlink="http://www.w3.org/1999/xlink">
    <!-- Generator: Sketch 45.2 (43514) - http://www.bohemiancoding.com/sketch -->
    <title>icon-logo</title>
    <desc>Created with Sketch.</desc>
    <defs></defs>
    <g id="Page-1" stroke="none" stroke-width="1" fill="none" fill-rule="evenodd">
        <g id="icon-logo" fill-rule="nonzero">
            <circle id="Oval-2" fill="#1AA758" cx="20" cy="20" r="20"></circle>
            <g id="noun_634764_cc" transform="translate(8.000000, 6.000000)" fill="#FFFFFF">
                <path d="M12,26.5828021 C5.38304735,26.5828021 0,21.140248 0,14.4525547 C0,11.1916547 1.26208231,8.13076575 3.55308992,5.83611632 C4.26339827,5.12465292 5.40843762,5.12966102 6.11286286,5.84675853 C6.81481099,6.56510807 6.81140498,7.72385752 6.10016772,8.4346949 C4.4999613,10.0369743 3.61873307,12.1741816 3.61873307,14.4525547 C3.61873307,19.1232352 7.37835118,22.9243841 12,22.9243841 C16.6213392,22.9243841 20.3806477,19.1229222 20.3806477,14.4525547 C20.3806477,12.1898319 19.5096375,10.0610758 17.9252226,8.46130044 C17.2189395,7.74670698 17.2189395,6.58858355 17.9252226,5.87367708 C18.6324345,5.15939663 19.7780931,5.15939663 20.4853051,5.87367708 C22.7515417,8.16488344 24,11.2116871 24,14.4522417 C24,21.140561 18.6169527,26.5828021 12,26.5828021 Z M14.080612,14.6319046 L14.080612,2.86411843 C14.080612,1.83360338 13.1664013,1 12.040306,1 C10.9145597,1 10,1.83392252 10,2.86411843 L10,14.6319046 C10,15.6624196 10.9145597,16.4963421 12.040306,16.4963421 C13.1664013,16.4963421 14.080612,15.6624196 14.080612,14.6319046 Z M6.68440563,4.08061199 L17.3158827,4.08061199 C18.2468902,4.08061199 19,3.16640131 19,2.04030599 C19,0.914559744 18.2466019,3.05692217e-16 17.3158827,1.34721879e-16 L6.68440563,-1.81824877e-15 C5.75339814,-1.98927208e-15 5,0.914559744 5,2.04030599 C5,3.16640131 5.75339814,4.08061199 6.68440563,4.08061199 Z" id="Shape"></path>
            </g>
            <path d="M46.64,4.3 L60.02,4.3 C61.67,4.3 62.66,5.14 62.66,6.67 C62.66,8.11 61.67,9.1 60.02,9.1 L56.03,9.1 L56.03,22.27 C56.03,23.8 55.1,25 53.33,25 C51.53,25 50.63,23.8 50.63,22.27 L50.63,9.1 L46.64,9.1 C44.99,9.1 44,8.11 44,6.67 C44,5.14 44.99,4.3 46.64,4.3 Z M64.82,22.27 L64.82,7.03 C64.82,5.5 65.75,4.3 67.52,4.3 L77.06,4.3 C78.71,4.3 79.7,5.17 79.7,6.7 C79.7,8.14 78.71,9.1 77.06,9.1 L70.22,9.1 L70.22,12.1 L75.53,12.1 C77.18,12.1 78.17,12.97 78.17,14.5 C78.17,15.94 77.18,16.9 75.53,16.9 L70.22,16.9 L70.22,20.2 L77.33,20.2 C78.98,20.2 79.97,21.07 79.97,22.6 C79.97,24.04 78.98,25 77.33,25 L67.52,25 C65.75,25 64.82,23.83 64.82,22.27 Z M86.3,5.74 L89.9,10.54 L93.41,5.83 C94.31,4.54 95.63,3.73 97.07,4.81 C98.42,5.8 98.18,7.24 97.28,8.44 L92.81,14.14 L97.88,20.59 C98.75,21.85 98.75,23.5 97.46,24.46 C96.05,25.51 94.55,24.97 93.65,23.68 L89.51,18.16 L85.58,23.56 C84.77,24.73 83.54,25.54 81.92,24.61 C80.6,23.62 80.72,22.15 81.56,20.98 L86.57,14.47 L82.01,8.8 C81.14,7.63 80.96,5.95 82.28,4.9 C83.84,3.64 85.46,4.51 86.3,5.74 Z M113.15,12.01 L113.15,7.03 C113.15,5.5 114.08,4.3 115.88,4.3 C117.65,4.3 118.55,5.5 118.55,7.03 L118.55,22.27 C118.55,23.83 117.65,25 115.88,25 C114.08,25 113.15,23.83 113.15,22.27 L113.15,16.81 L106.25,16.81 L106.25,22.27 C106.25,23.83 105.32,25 103.55,25 C101.78,25 100.85,23.83 100.85,22.27 L100.85,7.03 C100.85,5.5 101.78,4.3 103.55,4.3 C105.32,4.3 106.25,5.5 106.25,7.03 L106.25,12.01 L113.15,12.01 Z M121.79,14.65 C121.79,8.65 125.27,4 131.93,4 C138.59,4 142.07,8.65 142.07,14.65 C142.07,20.65 138.59,25.3 131.93,25.3 C125.27,25.3 121.79,20.65 121.79,14.65 Z M127.49,14.65 C127.49,17.92 128.84,20.5 131.93,20.5 C135.02,20.5 136.37,17.92 136.37,14.65 C136.37,11.38 135.02,8.8 131.93,8.8 C128.84,8.8 127.49,11.38 127.49,14.65 Z M154.07,8.8 C151.55,8.8 149.96,10.96 149.96,14.71 C149.96,18.67 151.94,20.5 154.22,20.5 C155.57,20.5 156.5,19.99 157.67,19.39 C159.14,18.64 160.16,18.85 160.82,19.69 C161.57,20.65 161.36,22.3 159.8,23.53 C158.39,24.64 156.41,25.3 153.74,25.3 C147.44,25.3 144.26,21.28 144.26,14.68 C144.26,8.14 148.07,4 153.95,4 C156.71,4 158.48,4.63 159.65,5.53 C160.88,6.49 160.85,7.75 160.46,8.53 C159.98,9.49 159.2,10.03 157.4,9.43 C156.5,9.13 155.72,8.8 154.07,8.8 Z M164.39,4.3 L177.77,4.3 C179.42,4.3 180.41,5.14 180.41,6.67 C180.41,8.11 179.42,9.1 177.77,9.1 L173.78,9.1 L173.78,22.27 C173.78,23.8 172.85,25 171.08,25 C169.28,25 168.38,23.8 168.38,22.27 L168.38,9.1 L164.39,9.1 C162.74,9.1 161.75,8.11 161.75,6.67 C161.75,5.14 162.74,4.3 164.39,4.3 Z M181.49,14.65 C181.49,8.65 184.97,4 191.63,4 C198.29,4 201.77,8.65 201.77,14.65 C201.77,20.65 198.29,25.3 191.63,25.3 C184.97,25.3 181.49,20.65 181.49,14.65 Z M187.19,14.65 C187.19,17.92 188.54,20.5 191.63,20.5 C194.72,20.5 196.07,17.92 196.07,14.65 C196.07,11.38 194.72,8.8 191.63,8.8 C188.54,8.8 187.19,11.38 187.19,14.65 Z M204.98,22.27 L204.98,7.57 C204.98,6.04 205.64,4.93 207.38,4.57 C208.82,4.27 210.62,4.15 212.27,4.15 C217.07,4.15 220.67,6.34 220.67,11.29 C220.67,16.36 216.92,18.64 212.33,18.64 C211.76,18.64 210.95,18.58 210.38,18.49 L210.38,22.27 C210.38,23.83 209.45,25 207.68,25 C205.91,25 204.98,23.83 204.98,22.27 Z M212.06,13.99 C213.74,13.99 214.97,13.18 214.97,11.29 C214.97,9.67 213.92,8.8 212.15,8.8 C211.58,8.8 210.83,8.83 210.38,8.89 L210.38,13.9 C210.83,13.96 211.55,13.99 212.06,13.99 Z" id="ТЕХНОСТОР" fill="#FFFFFF"></path>
            <path d="M51.132,32.924 C50.8519986,33.2600017 50.5276685,33.6846641 50.159,34.198 C49.7903315,34.7113359 49.4170019,35.2526638 49.039,35.822 C48.6609981,36.3913362 48.2993351,36.9559972 47.954,37.516 C47.6086649,38.0760028 47.3100013,38.5706645 47.058,39 L46.204,39 L46.204,31.762 L47.1,31.762 L47.1,37.558 C47.3240011,37.1566647 47.601665,36.692336 47.933,36.165 C48.264335,35.637664 48.6166648,35.1056693 48.99,34.569 C49.3633352,34.0323306 49.7389981,33.5166691 50.117,33.022 C50.4950019,32.5273309 50.8473317,32.1073351 51.174,31.762 L52.028,31.762 L52.028,39 L51.132,39 L51.132,32.924 Z M61.59,39 L60.68,39 L60.68,35.626 L56.746,35.626 L56.746,39 L55.836,39 L55.836,31.762 L56.746,31.762 L56.746,34.856 L60.68,34.856 L60.68,31.762 L61.59,31.762 L61.59,39 Z M70.06,31.762 L70.06,32.532 L67.68,32.532 L67.68,39 L66.77,39 L66.77,32.532 L64.404,32.532 L64.404,31.762 L70.06,31.762 Z M72.4399999,35.374 C72.4399999,34.7393302 72.530999,34.1863357 72.7129999,33.715 C72.8950008,33.2436643 73.1329985,32.8493349 73.4269999,32.532 C73.7210014,32.2146651 74.056998,31.9790008 74.4349999,31.825 C74.8130018,31.6709992 75.2026646,31.594 75.6039999,31.594 C76.490671,31.594 77.197664,31.8833304 77.7249999,32.462 C78.2523359,33.0406696 78.5159999,33.931994 78.5159999,35.136 C78.5159999,35.210667 78.5136666,35.285333 78.5089999,35.36 C78.5043332,35.434667 78.4973333,35.5046663 78.4879999,35.57 L73.4059999,35.57 C73.4340001,36.4566711 73.6533312,37.1379976 74.0639999,37.614 C74.4746686,38.0900024 75.1279954,38.328 76.0239999,38.328 C76.5186691,38.328 76.9106651,38.2813338 77.1999999,38.188 C77.4893347,38.0946662 77.6993326,38.0153337 77.8299999,37.95 L77.9979999,38.734 C77.8673326,38.808667 77.6223351,38.8973328 77.2629999,39 C76.9036648,39.1026672 76.4813357,39.154 75.9959999,39.154 C75.3613301,39.154 74.8200022,39.0606676 74.3719999,38.874 C73.9239977,38.6873324 73.5553347,38.4260017 73.2659999,38.09 C72.9766651,37.7539983 72.7666672,37.3550023 72.6359999,36.893 C72.5053326,36.4309977 72.4399999,35.9246694 72.4399999,35.374 Z M77.5779999,34.8 C77.5593332,34.0439962 77.3820016,33.4560021 77.0459999,33.036 C76.7099982,32.6159979 76.234003,32.406 75.6179999,32.406 C75.2913316,32.406 74.9996679,32.4713327 74.7429999,32.602 C74.486332,32.7326673 74.2623342,32.9076656 74.0709999,33.127 C73.8796656,33.3463344 73.7303338,33.6006652 73.6229999,33.89 C73.5156661,34.1793348 73.4526667,34.4826651 73.4339999,34.8 L77.5779999,34.8 Z M82.8559999,37.698 C82.9400003,37.7633337 83.0449993,37.833333 83.1709999,37.908 C83.2970005,37.982667 83.4439991,38.0526663 83.6119999,38.118 C83.7800007,38.1833337 83.9619989,38.2369998 84.1579999,38.279 C84.3540009,38.3210002 84.5593322,38.342 84.7739999,38.342 C85.2220021,38.342 85.5976651,38.2650008 85.9009999,38.111 C86.2043348,37.9569992 86.4493323,37.7470013 86.6359999,37.481 C86.8226675,37.2149987 86.9579995,36.9023351 87.0419999,36.543 C87.1260003,36.1836649 87.1679999,35.8033353 87.1679999,35.402 C87.1679999,34.4499952 86.9300023,33.7196692 86.4539999,33.211 C85.9779975,32.7023308 85.3480038,32.448 84.5639999,32.448 C84.1159977,32.448 83.7543346,32.4689998 83.4789999,32.511 C83.2036652,32.5530002 82.9960006,32.5973331 82.8559999,32.644 L82.8559999,37.698 Z M82.8559999,41.59 L81.9459999,41.59 L81.9459999,32.014 C82.2166679,31.9206662 82.5619978,31.8320004 82.9819999,31.748 C83.402002,31.6639996 83.9339967,31.622 84.5779999,31.622 C85.1100026,31.622 85.5929977,31.7083325 86.0269999,31.881 C86.4610021,32.0536675 86.8343317,32.3033317 87.1469999,32.63 C87.4596681,32.9566683 87.7023324,33.353331 87.8749999,33.82 C88.0476674,34.286669 88.1339999,34.8139971 88.1339999,35.402 C88.1339999,35.9526694 88.0616673,36.4589977 87.9169999,36.921 C87.7723325,37.3830023 87.5600013,37.779665 87.2799999,38.111 C86.9999985,38.442335 86.6570019,38.7013324 86.2509999,38.888 C85.8449979,39.0746676 85.3806692,39.168 84.8579999,39.168 C84.3819975,39.168 83.9690017,39.100334 83.6189999,38.965 C83.2689982,38.829666 83.0146674,38.7013339 82.8559999,38.58 L82.8559999,41.59 Z M97.2619999,39 L96.3519999,39 L96.3519999,35.626 L92.4179999,35.626 L92.4179999,39 L91.5079999,39 L91.5079999,31.762 L92.4179999,31.762 L92.4179999,34.856 L96.3519999,34.856 L96.3519999,31.762 L97.2619999,31.762 L97.2619999,39 Z M100.636,35.374 C100.636,34.7393302 100.726999,34.1863357 100.909,33.715 C101.091001,33.2436643 101.328998,32.8493349 101.623,32.532 C101.917001,32.2146651 102.252998,31.9790008 102.631,31.825 C103.009002,31.6709992 103.398665,31.594 103.8,31.594 C104.686671,31.594 105.393664,31.8833304 105.921,32.462 C106.448336,33.0406696 106.712,33.931994 106.712,35.136 C106.712,35.210667 106.709667,35.285333 106.705,35.36 C106.700333,35.434667 106.693333,35.5046663 106.684,35.57 L101.602,35.57 C101.63,36.4566711 101.849331,37.1379976 102.26,37.614 C102.670669,38.0900024 103.323995,38.328 104.22,38.328 C104.714669,38.328 105.106665,38.2813338 105.396,38.188 C105.685335,38.0946662 105.895333,38.0153337 106.026,37.95 L106.194,38.734 C106.063333,38.808667 105.818335,38.8973328 105.459,39 C105.099665,39.1026672 104.677336,39.154 104.192,39.154 C103.55733,39.154 103.016002,39.0606676 102.568,38.874 C102.119998,38.6873324 101.751335,38.4260017 101.462,38.09 C101.172665,37.7539983 100.962667,37.3550023 100.832,36.893 C100.701333,36.4309977 100.636,35.9246694 100.636,35.374 Z M105.774,34.8 C105.755333,34.0439962 105.578002,33.4560021 105.242,33.036 C104.905998,32.6159979 104.430003,32.406 103.814,32.406 C103.487332,32.406 103.195668,32.4713327 102.939,32.602 C102.682332,32.7326673 102.458334,32.9076656 102.267,33.127 C102.075666,33.3463344 101.926334,33.6006652 101.819,33.89 C101.711666,34.1793348 101.648667,34.4826651 101.63,34.8 L105.774,34.8 Z M114.804,31.762 L114.804,32.532 L112.424,32.532 L112.424,39 L111.514,39 L111.514,32.532 L109.148,32.532 L109.148,31.762 L114.804,31.762 Z M116.54,34.506 L119.704,34.506 L119.704,35.388 L116.54,35.388 L116.54,34.506 Z M126.844,32.532 L123.61,32.532 L123.61,39 L122.7,39 L122.7,31.762 L126.844,31.762 L126.844,32.532 Z M134.586,32.924 C134.305998,33.2600017 133.981668,33.6846641 133.613,34.198 C133.244331,34.7113359 132.871002,35.2526638 132.493,35.822 C132.114998,36.3913362 131.753335,36.9559972 131.408,37.516 C131.062665,38.0760028 130.764001,38.5706645 130.512,39 L129.658,39 L129.658,31.762 L130.554,31.762 L130.554,37.558 C130.778001,37.1566647 131.055665,36.692336 131.387,36.165 C131.718335,35.637664 132.070665,35.1056693 132.444,34.569 C132.817335,34.0323306 133.192998,33.5166691 133.571,33.022 C133.949002,32.5273309 134.301331,32.1073351 134.628,31.762 L135.482,31.762 L135.482,39 L134.586,39 L134.586,32.924 Z M144.876,39 L143.966,39 L143.966,32.532 L140.2,32.532 L140.2,39 L139.29,39 L139.29,31.762 L144.876,31.762 L144.876,39 Z M148.25,35.374 C148.25,34.7393302 148.340999,34.1863357 148.523,33.715 C148.705001,33.2436643 148.942998,32.8493349 149.237,32.532 C149.531001,32.2146651 149.866998,31.9790008 150.245,31.825 C150.623002,31.6709992 151.012664,31.594 151.414,31.594 C152.300671,31.594 153.007664,31.8833304 153.535,32.462 C154.062336,33.0406696 154.326,33.931994 154.326,35.136 C154.326,35.210667 154.323666,35.285333 154.319,35.36 C154.314333,35.434667 154.307333,35.5046663 154.298,35.57 L149.216,35.57 C149.244,36.4566711 149.463331,37.1379976 149.874,37.614 C150.284668,38.0900024 150.937995,38.328 151.834,38.328 C152.328669,38.328 152.720665,38.2813338 153.01,38.188 C153.299334,38.0946662 153.509332,38.0153337 153.64,37.95 L153.808,38.734 C153.677332,38.808667 153.432335,38.8973328 153.073,39 C152.713665,39.1026672 152.291335,39.154 151.806,39.154 C151.17133,39.154 150.630002,39.0606676 150.182,38.874 C149.733997,38.6873324 149.365334,38.4260017 149.076,38.09 C148.786665,37.7539983 148.576667,37.3550023 148.446,36.893 C148.315332,36.4309977 148.25,35.9246694 148.25,35.374 Z M153.388,34.8 C153.369333,34.0439962 153.192001,33.4560021 152.856,33.036 C152.519998,32.6159979 152.044003,32.406 151.428,32.406 C151.101331,32.406 150.809668,32.4713327 150.553,32.602 C150.296332,32.7326673 150.072334,32.9076656 149.881,33.127 C149.689665,33.3463344 149.540334,33.6006652 149.433,33.89 C149.325666,34.1793348 149.262666,34.4826651 149.244,34.8 L153.388,34.8 Z M158.666,37.698 C158.75,37.7633337 158.854999,37.833333 158.981,37.908 C159.107,37.982667 159.253999,38.0526663 159.422,38.118 C159.590001,38.1833337 159.771999,38.2369998 159.968,38.279 C160.164001,38.3210002 160.369332,38.342 160.584,38.342 C161.032002,38.342 161.407665,38.2650008 161.711,38.111 C162.014335,37.9569992 162.259332,37.7470013 162.446,37.481 C162.632667,37.2149987 162.767999,36.9023351 162.852,36.543 C162.936,36.1836649 162.978,35.8033353 162.978,35.402 C162.978,34.4499952 162.740002,33.7196692 162.264,33.211 C161.787997,32.7023308 161.158004,32.448 160.374,32.448 C159.925997,32.448 159.564334,32.4689998 159.289,32.511 C159.013665,32.5530002 158.806,32.5973331 158.666,32.644 L158.666,37.698 Z M158.666,41.59 L157.756,41.59 L157.756,32.014 C158.026668,31.9206662 158.371998,31.8320004 158.792,31.748 C159.212002,31.6639996 159.743996,31.622 160.388,31.622 C160.920002,31.622 161.402998,31.7083325 161.837,31.881 C162.271002,32.0536675 162.644331,32.3033317 162.957,32.63 C163.269668,32.9566683 163.512332,33.353331 163.685,33.82 C163.857667,34.286669 163.944,34.8139971 163.944,35.402 C163.944,35.9526694 163.871667,36.4589977 163.727,36.921 C163.582332,37.3830023 163.370001,37.779665 163.09,38.111 C162.809998,38.442335 162.467002,38.7013324 162.061,38.888 C161.654998,39.0746676 161.190669,39.168 160.668,39.168 C160.191997,39.168 159.779001,39.100334 159.429,38.965 C159.078998,38.829666 158.824667,38.7013339 158.666,38.58 L158.666,41.59 Z M170.748,37.992 C170.691999,37.8519993 170.608,37.6583346 170.496,37.411 C170.383999,37.1636654 170.260334,36.8883348 170.125,36.585 C169.989666,36.2816652 169.842667,35.9596684 169.684,35.619 C169.525332,35.2783316 169.369,34.9493349 169.215,34.632 C169.060999,34.3146651 168.914,34.0160014 168.774,33.736 C168.633999,33.4559986 168.512667,33.2273342 168.41,33.05 C168.288666,34.1233387 168.2,35.1429952 168.144,36.109 C168.087999,37.0750048 168.041333,38.0386619 168.004,39 L167.15,39 C167.187333,37.795994 167.250333,36.5826728 167.339,35.36 C167.427667,34.1373272 167.541999,32.9380059 167.682,31.762 L168.62,31.762 C168.741334,31.958001 168.897665,32.2379982 169.089,32.602 C169.280334,32.9660018 169.490332,33.3789977 169.719,33.841 C169.947667,34.3030023 170.185665,34.8023307 170.433,35.339 C170.680334,35.8756694 170.929998,36.4193306 171.182,36.97 C171.434001,36.4193306 171.683665,35.8756694 171.931,35.339 C172.178334,34.8023307 172.416332,34.3030023 172.645,33.841 C172.873667,33.3789977 173.081332,32.9660018 173.268,32.602 C173.454667,32.2379982 173.613332,31.958001 173.744,31.762 L174.668,31.762 C174.808,32.9380059 174.922333,34.1373272 175.011,35.36 C175.099667,36.5826728 175.162666,37.795994 175.2,39 L174.332,39 C174.294666,38.0386619 174.248,37.0750048 174.192,36.109 C174.135999,35.1429952 174.047334,34.1233387 173.926,33.05 C173.823332,33.2366676 173.702,33.4676653 173.562,33.743 C173.421999,34.0183347 173.275,34.3146651 173.121,34.632 C172.966999,34.9493349 172.810667,35.2783316 172.652,35.619 C172.493332,35.9596684 172.346334,36.2816652 172.211,36.585 C172.075666,36.8883348 171.952,37.1636654 171.84,37.411 C171.727999,37.6583346 171.644,37.8519993 171.588,37.992 L170.748,37.992 Z M181.122,38.342 C181.476668,38.342 181.786998,38.3303334 182.053,38.307 C182.319001,38.2836665 182.545332,38.2533335 182.732,38.216 L182.732,35.668 C182.629332,35.6213331 182.466001,35.5723336 182.242,35.521 C182.017999,35.4696664 181.710002,35.444 181.318,35.444 C181.093999,35.444 180.860668,35.4603332 180.618,35.493 C180.375332,35.5256668 180.151334,35.5956661 179.946,35.703 C179.740665,35.8103339 179.572667,35.9573324 179.442,36.144 C179.311332,36.3306676 179.246,36.5779985 179.246,36.886 C179.246,37.156668 179.290333,37.3853324 179.379,37.572 C179.467667,37.7586676 179.593665,37.9079994 179.757,38.02 C179.920334,38.1320006 180.116332,38.2136664 180.345,38.265 C180.573667,38.3163336 180.832665,38.342 181.122,38.342 Z M181.038,31.594 C181.514002,31.594 181.917665,31.661666 182.249,31.797 C182.580335,31.932334 182.848665,32.1189988 183.054,32.357 C183.259334,32.5950012 183.408666,32.8773317 183.502,33.204 C183.595333,33.5306683 183.642,33.8853314 183.642,34.268 L183.642,38.832 C183.548666,38.8600001 183.413334,38.8903332 183.236,38.923 C183.058665,38.9556668 182.853334,38.9906665 182.62,39.028 C182.386665,39.0653335 182.127668,39.0956666 181.843,39.119 C181.558332,39.1423335 181.266668,39.154 180.968,39.154 C180.585331,39.154 180.233001,39.1120004 179.911,39.028 C179.588998,38.9439996 179.309001,38.8110009 179.071,38.629 C178.832998,38.4469991 178.646334,38.2136681 178.511,37.929 C178.375666,37.6443319 178.308,37.2966687 178.308,36.886 C178.308,36.493998 178.382666,36.1580014 178.532,35.878 C178.681334,35.5979986 178.891332,35.3670009 179.162,35.185 C179.432668,35.0029991 179.754664,34.8700004 180.128,34.786 C180.501335,34.7019996 180.907331,34.66 181.346,34.66 C181.476667,34.66 181.614332,34.6669999 181.759,34.681 C181.903667,34.6950001 182.043666,34.7136665 182.179,34.737 C182.314334,34.7603335 182.430999,34.7836665 182.529,34.807 C182.627,34.8303334 182.694666,34.8513332 182.732,34.87 L182.732,34.422 C182.732,34.1699987 182.713333,33.9250012 182.676,33.687 C182.638666,33.4489988 182.557,33.2343343 182.431,33.043 C182.304999,32.8516657 182.127667,32.6976673 181.899,32.581 C181.670332,32.4643327 181.369335,32.406 180.996,32.406 C180.463997,32.406 180.067334,32.443333 179.806,32.518 C179.544665,32.592667 179.353334,32.6533331 179.232,32.7 L179.106,31.902 C179.264667,31.827333 179.509665,31.7573337 179.841,31.692 C180.172335,31.6266663 180.571331,31.594 181.038,31.594 Z M188.276,37.698 C188.36,37.7633337 188.464999,37.833333 188.591,37.908 C188.717,37.982667 188.863999,38.0526663 189.032,38.118 C189.2,38.1833337 189.381999,38.2369998 189.578,38.279 C189.774001,38.3210002 189.979332,38.342 190.194,38.342 C190.642002,38.342 191.017665,38.2650008 191.321,38.111 C191.624334,37.9569992 191.869332,37.7470013 192.056,37.481 C192.242667,37.2149987 192.377999,36.9023351 192.462,36.543 C192.546,36.1836649 192.588,35.8033353 192.588,35.402 C192.588,34.4499952 192.350002,33.7196692 191.874,33.211 C191.397997,32.7023308 190.768004,32.448 189.984,32.448 C189.535997,32.448 189.174334,32.4689998 188.899,32.511 C188.623665,32.5530002 188.416,32.5973331 188.276,32.644 L188.276,37.698 Z M188.276,41.59 L187.366,41.59 L187.366,32.014 C187.636668,31.9206662 187.981998,31.8320004 188.402,31.748 C188.822002,31.6639996 189.353996,31.622 189.998,31.622 C190.530002,31.622 191.012997,31.7083325 191.447,31.881 C191.881002,32.0536675 192.254331,32.3033317 192.567,32.63 C192.879668,32.9566683 193.122332,33.353331 193.295,33.82 C193.467667,34.286669 193.554,34.8139971 193.554,35.402 C193.554,35.9526694 193.481667,36.4589977 193.337,36.921 C193.192332,37.3830023 192.980001,37.779665 192.7,38.111 C192.419998,38.442335 192.077002,38.7013324 191.671,38.888 C191.264998,39.0746676 190.800669,39.168 190.278,39.168 C189.801997,39.168 189.389001,39.100334 189.039,38.965 C188.688998,38.829666 188.434667,38.7013339 188.276,38.58 L188.276,41.59 Z M196.928,39 L196.928,31.762 L197.838,31.762 L197.838,35.108 C198.099334,34.8559987 198.390998,34.5736682 198.713,34.261 C199.035001,33.9483318 199.349998,33.6356682 199.658,33.323 C199.966001,33.0103318 200.252998,32.7163347 200.519,32.441 C200.785001,32.1656653 200.997332,31.9393342 201.156,31.762 L202.248,31.762 C202.033332,32.0046679 201.776668,32.2776652 201.478,32.581 C201.179331,32.8843349 200.873668,33.1899985 200.561,33.498 C200.248331,33.8060015 199.945001,34.1046652 199.651,34.394 C199.356998,34.6833348 199.098001,34.9306656 198.874,35.136 C199.191335,35.3413344 199.527331,35.5956652 199.882,35.899 C200.236668,36.2023348 200.579665,36.5289983 200.911,36.879 C201.242335,37.2290018 201.550332,37.5883315 201.835,37.957 C202.119668,38.3256685 202.359999,38.6733317 202.556,39 L201.478,39 C201.253998,38.6546649 200.990334,38.3046684 200.687,37.95 C200.383665,37.5953316 200.066335,37.2570016 199.735,36.935 C199.403665,36.6129984 199.072335,36.3213346 198.741,36.06 C198.409665,35.7986654 198.108668,35.5886675 197.838,35.43 L197.838,39 L196.928,39 Z M204.768,35.374 C204.768,34.7393302 204.858999,34.1863357 205.041,33.715 C205.223,33.2436643 205.460998,32.8493349 205.755,32.532 C206.049001,32.2146651 206.384998,31.9790008 206.763,31.825 C207.141001,31.6709992 207.530664,31.594 207.932,31.594 C208.818671,31.594 209.525664,31.8833304 210.053,32.462 C210.580336,33.0406696 210.844,33.931994 210.844,35.136 C210.844,35.210667 210.841666,35.285333 210.837,35.36 C210.832333,35.434667 210.825333,35.5046663 210.816,35.57 L205.734,35.57 C205.762,36.4566711 205.981331,37.1379976 206.392,37.614 C206.802668,38.0900024 207.455995,38.328 208.352,38.328 C208.846669,38.328 209.238665,38.2813338 209.528,38.188 C209.817334,38.0946662 210.027332,38.0153337 210.158,37.95 L210.326,38.734 C210.195332,38.808667 209.950335,38.8973328 209.591,39 C209.231664,39.1026672 208.809335,39.154 208.324,39.154 C207.68933,39.154 207.148002,39.0606676 206.7,38.874 C206.251997,38.6873324 205.883334,38.4260017 205.594,38.09 C205.304665,37.7539983 205.094667,37.3550023 204.964,36.893 C204.833332,36.4309977 204.768,35.9246694 204.768,35.374 Z M209.906,34.8 C209.887333,34.0439962 209.710001,33.4560021 209.374,33.036 C209.037998,32.6159979 208.562003,32.406 207.946,32.406 C207.619331,32.406 207.327668,32.4713327 207.071,32.602 C206.814332,32.7326673 206.590334,32.9076656 206.399,33.127 C206.207665,33.3463344 206.058333,33.6006652 205.951,33.89 C205.843666,34.1793348 205.780666,34.4826651 205.762,34.8 L209.906,34.8 Z M218.936,31.762 L218.936,32.532 L216.556,32.532 L216.556,39 L215.646,39 L215.646,32.532 L213.28,32.532 L213.28,31.762 L218.936,31.762 Z" id="интернет-гипермаркет" fill-opacity="0.497961957" fill="#FFFFFF"></path>
        </g>
    </g>
</svg>