<?xml version="1.0" encoding="UTF-8"?>
<svg width="24px" height="24px" viewBox="0 0 24 24" version="1.1" xmlns="http://www.w3.org/2000/svg" xmlns:xlink="http://www.w3.org/1999/xlink">
    <!-- Generator: Sketch 48.2 (47327) - http://www.bohemiancoding.com/sketch -->
    <title>ico3</title>
    <desc>Created with Sketch.</desc>
    <defs></defs>
    <g id="Technostor-Mobile-Menu" stroke="none" stroke-width="1" fill="none" fill-rule="evenodd" transform="translate(-13.000000, -220.000000)">
        <g id="Catalog" transform="translate(0.000000, 60.000000)">
            <g id="Drop-Menu-Copy-3" transform="translate(0.000000, 150.000000)">
                <g id="ico3" transform="translate(10.000000, 10.000000)">
                    <rect id="Rectangle-4" fill-opacity="0" fill="#FF0000" x="0" y="0" width="30" height="30"></rect>
                    <g id="noun_589039_cc" transform="translate(3.000000, 0.000000)" fill="#333333" fill-rule="nonzero">
                        <path d="M22.1814603,16.4110295 L19.0356229,15.5462838 C19.2812438,13.5049168 18.0342452,11.5060784 16.003149,10.9343067 C12.9234403,10.0648356 11.3316276,12.4700572 10.9584727,13.3300776 L8.12910844,12.5551142 C7.60952568,12.4133526 7.08049597,12.3377464 6.55618973,12.3282956 L4.50619957,0.859782889 C4.45424129,0.57153432 4.21806731,0.34944116 3.92521157,0.316363455 L1.22338122,0.00448795414 C0.854949813,-0.0380405233 0.529029719,0.226581114 0.486518402,0.590435865 C0.444007085,0.954290617 0.708521944,1.28506766 1.07222988,1.32759614 L3.28281834,1.58276701 L5.22416847,12.4417049 C4.26530211,12.6307204 3.35367054,13.0371036 2.550679,13.6466784 C0.930525487,14.8847297 0,16.7701588 0,18.8162511 L0,20.8103642 C0,21.1789443 0.297579217,21.4766437 0.666010628,21.4766437 L2.25309978,21.4766437 C2.56012596,22.9178865 3.83074198,24 5.3564259,24 C6.88210982,24 8.15272584,22.9178865 8.45975202,21.4766437 L15.304074,21.4766437 C15.6111002,22.9178865 16.8817162,24 18.4074001,24 C19.9283606,24 21.2037001,22.9178865 21.5107262,21.4766437 C21.5107262,21.4766437 24,21.3112551 24,19.1753805 C23.9952765,17.408086 23.2489667,16.7040034 22.1814603,16.4110295 Z M15.6299941,12.2196118 C16.9431214,12.6354458 17.7980712,13.8593208 17.7272191,15.1918798 L12.2527062,13.6892069 C12.517221,13.1788652 13.8445188,11.6525654 15.6299941,12.2196118 Z M5.3564259,22.6721664 C4.34087778,22.6721664 3.51899232,21.8404984 3.51899232,20.8150896 C3.51899232,19.7896807 4.34560126,18.9580127 5.3564259,18.9580127 C6.37197402,18.9580127 7.19385948,19.7896807 7.19385948,20.8150896 C7.19385948,21.8404984 6.37197402,22.6721664 5.3564259,22.6721664 Z M18.4026766,22.6721664 C17.3871285,22.6721664 16.5652431,21.8404984 16.5652431,20.8150896 C16.5652431,19.7896807 17.391852,18.9580127 18.4026766,18.9580127 C19.4182248,18.9580127 20.2401102,19.7896807 20.2401102,20.8150896 C20.2401102,21.8404984 19.4182248,22.6721664 18.4026766,22.6721664 Z M21.5060028,20.1440847 C21.1989766,18.7028419 19.9283606,17.6207284 18.4026766,17.6207284 C16.8817162,17.6207284 15.6063767,18.7028419 15.2993505,20.1440847 L8.45975202,20.1440847 C8.15272584,18.7028419 6.88210982,17.6207284 5.3564259,17.6207284 C3.83074198,17.6207284 2.56012596,18.7028419 2.25309978,20.1440847 L1.33202126,20.1440847 L1.33202126,18.8162511 C1.33202126,17.1859928 2.06888408,15.6927707 3.35839402,14.7098904 C4.62901004,13.7411862 6.23971659,13.4245853 7.77957095,13.8451447 L21.8319228,17.6963346 C22.3231647,17.8286454 22.6632553,18.0885416 22.6632553,19.1753805 C22.6632553,20.196064 21.5060028,20.1440847 21.5060028,20.1440847 Z" id="Shape"></path>
                    </g>
                </g>
            </g>
        </g>
    </g>
</svg>