<?xml version="1.0" encoding="UTF-8"?>
<svg width="24px" height="24px" viewBox="0 0 24 24" version="1.1" xmlns="http://www.w3.org/2000/svg" xmlns:xlink="http://www.w3.org/1999/xlink">
    <!-- Generator: Sketch 48.2 (47327) - http://www.bohemiancoding.com/sketch -->
    <title>ico13</title>
    <desc>Created with Sketch.</desc>
    <defs></defs>
    <g id="Technostor-Mobile-Menu" stroke="none" stroke-width="1" fill="none" fill-rule="evenodd" transform="translate(-13.000000, -723.000000)">
        <g id="Catalog" transform="translate(0.000000, 60.000000)">
            <g id="Drop-Menu-Copy-16" transform="translate(0.000000, 650.000000)">
                <g id="ico13" transform="translate(10.000000, 10.000000)">
                    <rect id="Rectangle-4" fill-opacity="0" fill="#FF0000" x="0" y="0" width="30" height="30"></rect>
                    <g id="noun_1393778_cc" transform="translate(3.000000, 3.000000)" fill="#000000" fill-rule="nonzero">
                        <g id="Group">
                            <path d="M8.5024,12.0090667 C9.46586667,11.0445333 11.0290667,11.0445333 11.9928,12.0090667 L11.6682667,12.3336 L11.3437333,12.6578667 C10.7365333,12.0528 9.75733333,12.0528 9.15093333,12.6568 C8.54533333,13.264 8.54533333,14.2434667 9.15093333,14.8509333 C9.75706667,15.4565333 10.7362667,15.4565333 11.3437333,14.8509333 C11.948,14.2437333 11.948,13.2642667 11.3437333,12.6578667 L11.6682667,12.3336 L11.9928,12.0090667 C12.9562667,12.9728 12.9562667,14.5346667 11.9928,15.4994667 C11.028,16.4629333 9.46586667,16.4629333 8.5024,15.4994667 C7.53866667,14.536 7.53866667,12.9728 8.5024,12.0090667 Z" id="Shape"></path>
                            <polygon id="Shape" points="4.2856 15.8674667 8.13306667 19.7138667 7.4856 20.3613333 3.63813333 16.5149333"></polygon>
                            <path d="M2.06693333,20.7365333 C1.20186667,19.7784 0.5544,18.8114667 0.252266667,17.7901333 C-0.120266667,16.5525333 0.0904,15.2328 1.01973333,14.0024 C1.184,13.7789333 1.35813333,13.5794667 1.5368,13.4005333 C2.53546667,12.4018667 3.72106667,12.0197333 4.70266667,11.7882667 C5.68533333,11.5744 6.48746667,11.412 6.6544,11.1936 C7.1,10.8 7.44666667,9.412 8.40346667,8.4288 C8.86053333,7.96693333 9.49973333,7.6048 10.3261333,7.52853333 C11.7704,7.39306667 12.8293333,8.07493333 13.3629333,8.5224 L17.3786667,4.5056 L16.8064,3.93333333 L20.6618667,0.0773333333 L23.9221333,3.3376 L20.0661333,7.19466667 L19.7432,6.87013333 L19.4869333,6.6152 L15.4725333,10.6312 C15.9186667,11.1610667 16.6074667,12.2224 16.4709333,13.6733333 C16.3936,14.4997333 16.0325333,15.1389333 15.5698667,15.596 C14.5864,16.5528 13.2018667,16.9029333 12.8069333,17.3461333 C12.5896,17.5144 12.4272,18.3144 12.2136,19.2992 C11.9805333,20.2794667 11.5989333,21.464 10.5984,22.4616 C10.4197333,22.6426667 10.2213333,22.8154667 10.0002667,22.9808 C8.76773333,23.9117333 7.448,24.1208 6.20906667,23.7482667 C4.9776,23.3842667 3.8248,22.5157333 2.67173333,21.3722667 L1.97253333,20.7552 L2.06693333,20.7365333 Z M10.4168,8.44106667 C9.79733333,8.5048 9.3968,8.7384 9.05253333,9.0768 C8.2968,9.80453333 8.0264,11.0712 7.30346667,11.8421333 C6.6888,12.4085333 5.8408,12.4402667 4.91413333,12.6802667 C3.98693333,12.9016 3.0048,13.2304 2.18586667,14.0496 C2.03733333,14.1989333 1.89413333,14.3621333 1.7568,14.5498667 C0.9776,15.6109333 0.850933333,16.5346667 1.13386667,17.5328 C1.42186667,18.5293333 2.19413333,19.5965333 3.29733333,20.7002667 L3.29973333,20.7024 L3.30106667,20.7037333 C4.40346667,21.8085333 5.47173333,22.5805333 6.46826667,22.8682667 C7.46613333,23.1504 8.39066667,23.0245333 9.452,22.2453333 C9.63626667,22.108 9.80106667,21.9624 9.95146667,21.8141333 C10.7690667,20.9952 11.0997333,20.0141333 11.3205333,19.0866667 C11.5602667,18.1605333 11.5930667,17.312 12.1586667,16.6973333 C12.9296,15.9757333 14.1941333,15.704 14.9216,14.9482667 C15.2610667,14.6029333 15.496,14.2008 15.5586667,13.5829333 C15.696,12.2714667 14.8709333,11.3005333 14.5856,11.0186667 C14.5562667,10.9893333 14.5349333,10.9685333 14.5328,10.9685333 L14.1578667,10.6450667 L19.4874667,5.3168 L19.8117333,5.64133333 L20.0677333,5.8976 L22.6264,3.33893333 L20.6626667,1.3752 L18.1042667,3.93386667 L18.6765333,4.5072 L13.3608,9.82213333 L13.0362667,9.47306667 C13.0232,9.45866667 13.0056,9.44026667 12.9858667,9.41893333 C12.9832,9.4168 12.9810667,9.41413333 12.9776,9.41066667 C12.6872,9.11946667 11.7186667,8.30506667 10.4168,8.44106667 Z" id="Shape"></path>
                        </g>
                    </g>
                </g>
            </g>
        </g>
    </g>
</svg>