<?xml version="1.0" encoding="UTF-8"?>
<svg width="26px" height="17px" viewBox="0 0 26 17" version="1.1" xmlns="http://www.w3.org/2000/svg" xmlns:xlink="http://www.w3.org/1999/xlink">
    <!-- Generator: Sketch 48.2 (47327) - http://www.bohemiancoding.com/sketch -->
    <title>ico2</title>
    <desc>Created with Sketch.</desc>
    <defs></defs>
    <g id="Technostor-Mobile-Menu" stroke="none" stroke-width="1" fill="none" fill-rule="evenodd" transform="translate(-12.000000, -178.000000)">
        <g id="Catalog" transform="translate(0.000000, 60.000000)">
            <g id="Drop-Menu-Copy-2" transform="translate(0.000000, 100.000000)">
                <g id="ico2" transform="translate(10.000000, 10.000000)">
                    <rect id="Rectangle-4" fill-opacity="0" fill="#FF0000" x="0" y="0" width="30" height="30"></rect>
                    <g id="noun_949319_cc" transform="translate(2.000000, 8.000000)" fill="#333333" fill-rule="nonzero">
                        <path d="M22.979798,0 L2.83636364,0 C1.20808081,0 0,1.29083095 0,2.8008596 L0,6.33237822 C0,7.98853868 1.31313131,9.25501433 3.0989899,9.25501433 L22.7171717,9.25501433 C24.5030303,9.25501433 26,7.98853868 26,6.33237822 L26,2.8008596 C26,1.29083095 24.6080808,0 22.979798,0 Z M22.979798,0.974212034 C23.4262626,0.974212034 23.8464646,1.14469914 24.1878788,1.41260745 C24.0828283,1.65616046 23.8464646,1.99713467 23.7414141,2.11891117 C23.2949495,2.7277937 22.559596,3.16618911 21.7454545,3.16618911 L4.01818182,3.16618911 C3.02020202,3.16618911 2.33737374,2.53295129 1.94343434,2.04584527 C1.83838384,1.94842407 1.70707071,1.72922636 1.54949495,1.53438395 C1.89090909,1.21776504 2.31111111,0.974212034 2.83636364,0.974212034 L22.979798,0.974212034 Z M24.9494949,6.33237822 C24.9494949,7.45272206 23.8989899,8.28080229 22.7171717,8.28080229 L3.0989899,8.28080229 C1.89090909,8.28080229 1.05050505,7.42836676 1.05050505,6.33237822 L1.05050505,2.8008596 C1.05050505,2.67908309 1.05050505,2.8008596 1.05050505,2.55730659 C1.07676768,2.60601719 1.1030303,2.63037249 1.12929293,2.65472779 C1.89090909,3.58022923 2.88888889,4.14040115 4.01818182,4.14040115 L21.7454545,4.14040115 C22.9010101,4.14040115 23.9777778,3.55587393 24.6080808,2.65472779 C24.6606061,2.58166189 24.8707071,2.31375358 24.9494949,2.21633238 C24.9494949,2.41117479 24.9494949,2.63037249 24.9494949,2.8008596 L24.9494949,6.33237822 Z M23,6.5 C23,6.775 22.7712834,7 22.4917408,7 L3.50825921,7 C3.22871665,7 3,6.775 3,6.5 C3,6.225 3.22871665,6 3.50825921,6 L22.4917408,6 C22.7712834,6 23,6.225 23,6.5 Z M7.93131313,15.1489971 C7.82626263,16.1962751 6.59191919,16.8538682 6.43434343,16.9269341 C6.35555556,16.9756447 6.27676768,17 6.17171717,17 C5.98787879,17 5.8040404,16.9025788 5.6989899,16.756447 C5.56767677,16.512894 5.64646465,16.2206304 5.90909091,16.0988539 C6.14545455,15.9770774 6.8020202,15.5386819 6.85454545,15.0515759 C6.88080808,14.8080229 6.72323232,14.5401146 6.38181818,14.2722063 C5.6989899,13.7363897 5.38383838,13.1518625 5.41010101,12.5186246 C5.46262626,11.5444126 6.38181818,10.9111748 6.40808081,10.8868195 C6.64444444,10.7406877 6.95959596,10.765043 7.14343434,10.9842407 C7.3010101,11.2034384 7.27474747,11.495702 7.03838384,11.6661891 C7.01212121,11.6661891 6.48686869,12.0558739 6.46060606,12.5673352 C6.46060606,12.8839542 6.64444444,13.2005731 7.06464646,13.5415473 C7.87878788,14.1260745 7.98383838,14.734957 7.93131313,15.1489971 Z M12.4484848,15.1489971 C12.3434343,16.1962751 11.1090909,16.8538682 10.9515152,16.9269341 C10.8727273,16.9756447 10.7939394,17 10.6888889,17 C10.5050505,17 10.3212121,16.9025788 10.2161616,16.756447 C10.0848485,16.512894 10.1636364,16.2206304 10.4262626,16.0988539 C10.6626263,15.9770774 11.3191919,15.5386819 11.3717172,15.0515759 C11.3979798,14.8080229 11.240404,14.5401146 10.8989899,14.2722063 C10.2161616,13.7363897 9.9010101,13.1518625 9.92727273,12.5186246 C9.97979798,11.5444126 10.8989899,10.9111748 10.9252525,10.8868195 C11.1616162,10.7406877 11.4767677,10.765043 11.6606061,10.9842407 C11.8181818,11.2034384 11.7919192,11.495702 11.5555556,11.6661891 C11.5555556,11.6661891 11.0040404,12.0558739 10.9777778,12.5673352 C10.9777778,12.8839542 11.1616162,13.2005731 11.5818182,13.5415473 C12.369697,14.1260745 12.5010101,14.734957 12.4484848,15.1489971 Z M16.9656566,15.1489971 C16.8606061,16.1962751 15.6262626,16.8538682 15.4686869,16.9269341 C15.389899,16.9756447 15.3111111,17 15.2060606,17 C15.0222222,17 14.8383838,16.9025788 14.7333333,16.756447 C14.6020202,16.512894 14.6808081,16.2206304 14.9434343,16.0988539 C15.179798,15.9770774 15.8363636,15.5386819 15.8888889,15.0515759 C15.9151515,14.8080229 15.7575758,14.5401146 15.4161616,14.2722063 C14.7333333,13.7363897 14.4181818,13.1518625 14.4444444,12.5186246 C14.4969697,11.5444126 15.4161616,10.9111748 15.4424242,10.8868195 C15.6787879,10.7163324 15.9939394,10.765043 16.1777778,10.9842407 C16.3353535,11.2034384 16.3090909,11.495702 16.0727273,11.6661891 C16.0464646,11.6661891 15.5212121,12.0558739 15.4949495,12.5673352 C15.4949495,12.8839542 15.6787879,13.2005731 16.0989899,13.5415473 C16.8868687,14.1260745 16.9919192,14.734957 16.9656566,15.1489971 Z M21.4565657,15.1489971 C21.3515152,16.1962751 20.1171717,16.8538682 19.959596,16.9269341 C19.8808081,16.9756447 19.8020202,17 19.6969697,17 C19.5131313,17 19.3292929,16.9025788 19.2242424,16.756447 C19.0929293,16.512894 19.1717172,16.2206304 19.4343434,16.0988539 C19.6707071,15.9770774 20.3272727,15.5386819 20.379798,15.0515759 C20.4060606,14.8080229 20.2484848,14.5401146 19.9070707,14.2722063 C19.2242424,13.7363897 18.9090909,13.1518625 18.9353535,12.5186246 C18.9878788,11.5444126 19.9070707,10.9111748 19.9333333,10.8868195 C20.169697,10.7163324 20.4848485,10.765043 20.6686869,10.9842407 C20.8262626,11.2034384 20.8,11.495702 20.5636364,11.6661891 C20.5636364,11.6661891 20.0121212,12.0558739 19.9858586,12.5673352 C19.9858586,12.8839542 20.169697,13.2005731 20.589899,13.5415473 C21.4040404,14.1260745 21.5090909,14.734957 21.4565657,15.1489971 Z" id="Shape"></path>
                    </g>
                </g>
            </g>
        </g>
    </g>
</svg>