<?xml version="1.0" encoding="UTF-8"?>
<svg width="16px" height="12px" viewBox="0 0 16 12" version="1.1" xmlns="http://www.w3.org/2000/svg" xmlns:xlink="http://www.w3.org/1999/xlink">
    <!-- Generator: Sketch 48.2 (47327) - http://www.bohemiancoding.com/sketch -->
    <title>ic_local_shipping</title>
    <desc>Created with Sketch.</desc>
    <defs></defs>
    <g id="Technostor-Product-Page-Mobile" stroke="none" stroke-width="1" fill="none" fill-rule="evenodd" transform="translate(-16.000000, -227.000000)">
        <g id="Info" transform="translate(0.000000, 120.000000)">
            <g id="label" transform="translate(10.000000, 103.000000)">
                <g id="ic_local_shipping" transform="translate(6.000000, 2.116071)">
                    <polygon id="Bounds" points="0 0 16 0 16 16 0 16"></polygon>
                    <path d="M13.3333333,5.33333333 L11.3333333,5.33333333 L11.3333333,2.66666667 L2,2.66666667 C1.26666667,2.66666667 0.666666667,3.26666667 0.666666667,4 L0.666666667,11.3333333 L2,11.3333333 C2,12.44 2.89333333,13.3333333 4,13.3333333 C5.10666667,13.3333333 6,12.44 6,11.3333333 L10,11.3333333 C10,12.44 10.8933333,13.3333333 12,13.3333333 C13.1066667,13.3333333 14,12.44 14,11.3333333 L15.3333333,11.3333333 L15.3333333,8 L13.3333333,5.33333333 L13.3333333,5.33333333 Z M4,12.3333333 C3.44666667,12.3333333 3,11.8866667 3,11.3333333 C3,10.78 3.44666667,10.3333333 4,10.3333333 C4.55333333,10.3333333 5,10.78 5,11.3333333 C5,11.8866667 4.55333333,12.3333333 4,12.3333333 L4,12.3333333 Z M13,6.33333333 L14.3066667,8 L11.3333333,8 L11.3333333,6.33333333 L13,6.33333333 L13,6.33333333 Z M12,12.3333333 C11.4466667,12.3333333 11,11.8866667 11,11.3333333 C11,10.78 11.4466667,10.3333333 12,10.3333333 C12.5533333,10.3333333 13,10.78 13,11.3333333 C13,11.8866667 12.5533333,12.3333333 12,12.3333333 L12,12.3333333 Z" id="Icon" fill="#FFFFFF"></path>
                </g>
            </g>
        </g>
    </g>
</svg>