<?xml version="1.0" encoding="UTF-8"?>
<svg width="13px" height="22px" viewBox="0 0 13 22" version="1.1" xmlns="http://www.w3.org/2000/svg" xmlns:xlink="http://www.w3.org/1999/xlink">
    <!-- Generator: Sketch 48.2 (47327) - http://www.bohemiancoding.com/sketch -->
    <title>ico7</title>
    <desc>Created with Sketch.</desc>
    <defs></defs>
    <g id="Technostor-Mobile-Menu" stroke="none" stroke-width="1" fill="none" fill-rule="evenodd" transform="translate(-19.000000, -424.000000)">
        <g id="Catalog" transform="translate(0.000000, 60.000000)">
            <g id="Drop-Menu-Copy-7" transform="translate(0.000000, 350.000000)">
                <g id="ico7" transform="translate(10.000000, 10.000000)">
                    <rect id="Rectangle-4" fill-opacity="0" fill="#FF0000" x="0" y="0" width="30" height="30"></rect>
                    <g id="noun_589030_cc" transform="translate(9.000000, 4.000000)" fill="#333333" fill-rule="nonzero">
                        <path d="M11.6582677,1.01338583 L11.3031496,1.01338583 L11.3031496,0.610629921 C11.3031496,0.272834646 11.030315,0 10.6925197,0 C10.3547244,0 10.0818898,0.272834646 10.0818898,0.610629921 L10.0818898,1.01338583 L9.48425197,1.01338583 L9.48425197,0.610629921 C9.48425197,0.272834646 9.21141732,0 8.87362205,0 C8.53582677,0 8.26299213,0.272834646 8.26299213,0.610629921 L8.26299213,1.01338583 L7.66968504,1.01338583 L7.66968504,0.610629921 C7.66968504,0.272834646 7.39685039,0 7.05905512,0 C6.72125984,0 6.4484252,0.272834646 6.4484252,0.610629921 L6.4484252,1.01338583 L5.85511811,1.01338583 L5.85511811,0.610629921 C5.8507874,0.272834646 5.57795276,0 5.24015748,0 C4.9023622,0 4.62952756,0.272834646 4.62952756,0.610629921 L4.62952756,1.01338583 L4.03622047,1.01338583 L4.03622047,0.610629921 C4.03622047,0.272834646 3.76338583,7.69288395e-17 3.42559055,7.69288395e-17 C3.08779528,7.69288395e-17 2.81496063,0.272834646 2.81496063,0.610629921 L2.81496063,1.01338583 L2.22165354,1.01338583 L2.22165354,0.610629921 C2.22165354,0.272834646 1.9488189,7.69288395e-17 1.61102362,7.69288395e-17 C1.26889764,0 0.996062992,0.272834646 0.996062992,0.610629921 L0.996062992,1.01338583 L0.636614173,1.01338583 C0.298818898,1.01338583 0.025984252,1.28622047 0.025984252,1.62401575 L0.025984252,6.59133858 C0.0692913386,6.86417323 0.29015748,7.18897638 0.29015748,7.18897638 C2.47283465,10.419685 1.41614173,14.6551181 1.41614173,15.1704724 C1.41614173,18.938189 3.53818898,22 6.1496063,22 C8.76102362,22 10.8830709,18.9338583 10.8830709,15.1704724 C10.8830709,14.6594488 9.92165354,10.1901575 12.0090551,7.18897638 C12.0090551,7.18897638 12.2732283,6.83385827 12.2732283,6.59133858 L12.2732283,1.62401575 C12.2688976,1.28622047 11.996063,1.01338583 11.6582677,1.01338583 Z M9.66181102,15.1704724 C9.66181102,18.2106299 8.05511811,20.7787402 6.1496063,20.7787402 C4.2484252,20.7787402 2.63740157,18.2106299 2.63740157,15.1704724 C2.63740157,14.7200787 3.69409449,10.7314961 1.7019685,7.2019685 L10.5972441,7.2019685 C8.73503937,10.0385827 9.66181102,14.7200787 9.66181102,15.1704724 Z M11.0476378,5.98070866 L1.2515748,5.98070866 L1.2515748,2.23464567 L11.0519685,2.23464567 L11.0519685,5.98070866 L11.0476378,5.98070866 Z" id="Shape"></path>
                        <path d="M6.74291339,18.2582677 L5.55629921,18.2582677 C5.21850394,18.2582677 4.94566929,18.5311024 4.94566929,18.8688976 C4.94566929,19.2066929 5.21850394,19.4795276 5.55629921,19.4795276 L6.74291339,19.4795276 C7.08070866,19.4795276 7.35354331,19.2066929 7.35354331,18.8688976 C7.35354331,18.5311024 7.08070866,18.2582677 6.74291339,18.2582677 Z" id="Shape"></path>
                        <path d="M6.1496063,12.4248031 C6.48740157,12.4248031 6.76023622,12.1519685 6.76023622,11.8141732 L6.76023622,9.64448819 C6.76023622,9.30669291 6.48740157,9.03385827 6.1496063,9.03385827 C5.81181102,9.03385827 5.53897638,9.30669291 5.53897638,9.64448819 L5.53897638,11.8141732 C5.53897638,12.1519685 5.81181102,12.4248031 6.1496063,12.4248031 Z" id="Shape"></path>
                        <path d="M2.45551181,4.27874016 L9.84370079,4.27874016 C10.1814961,4.27874016 10.4543307,4.00590551 10.4543307,3.66811024 C10.4543307,3.33031496 10.1814961,3.05748031 9.84370079,3.05748031 L2.45551181,3.05748031 C2.11771654,3.05748031 1.84488189,3.33031496 1.84488189,3.66811024 C1.84488189,4.00590551 2.11771654,4.27874016 2.45551181,4.27874016 Z" id="Shape"></path>
                    </g>
                </g>
            </g>
        </g>
    </g>
</svg>