<?xml version="1.0" encoding="UTF-8"?>
<svg width="23px" height="17px" viewBox="0 0 23 17" version="1.1" xmlns="http://www.w3.org/2000/svg" xmlns:xlink="http://www.w3.org/1999/xlink">
    <!-- Generator: Sketch 48.2 (47327) - http://www.bohemiancoding.com/sketch -->
    <title>ico6</title>
    <desc>Created with Sketch.</desc>
    <defs></defs>
    <g id="Technostor-Mobile-Menu" stroke="none" stroke-width="1" fill="none" fill-rule="evenodd" transform="translate(-13.000000, -376.000000)">
        <g id="Catalog" transform="translate(0.000000, 60.000000)">
            <g id="Drop-Menu-Copy-6" transform="translate(0.000000, 300.000000)">
                <g id="ico6" transform="translate(10.000000, 10.000000)">
                    <rect id="Rectangle-4" fill-opacity="0" fill="#FF0000" x="0" y="0" width="30" height="30"></rect>
                    <g id="noun_87602_cc" transform="translate(3.000000, 6.000000)" fill="#333333" fill-rule="nonzero">
                        <path d="M21.1052632,6.31578947 L15.1178947,6.31578947 L15.1178947,3.68842105 C15.8505263,3.43578947 16.3810526,2.72842105 16.3810526,1.89473684 C16.3810526,0.858947368 15.5221053,0 14.4863158,0 L8.80210526,0 C7.76631579,0 6.90736842,0.858947368 6.90736842,1.89473684 C6.90736842,2.72842105 7.43789474,3.41052632 8.17052632,3.68842105 L8.17052632,6.31578947 L2.15789474,6.31578947 C1.12210526,6.31578947 0.263157895,7.17473684 0.263157895,8.21052632 L0.263157895,14.5263158 C0.263157895,15.5621053 1.12210526,16.4210526 2.15789474,16.4210526 L21.1052632,16.4210526 C22.1410526,16.4210526 23,15.5621053 23,14.5263158 L23,8.21052632 C23,7.17473684 22.1410526,6.31578947 21.1052632,6.31578947 Z M8.80210526,1.26315789 L14.4863158,1.26315789 C14.84,1.26315789 15.1178947,1.54105263 15.1178947,1.89473684 C15.1178947,2.24842105 14.8147368,2.52631579 14.4863158,2.52631579 L8.80210526,2.52631579 C8.44842105,2.52631579 8.17052632,2.24842105 8.17052632,1.89473684 C8.17052632,1.54105263 8.44842105,1.26315789 8.80210526,1.26315789 Z M13.8547368,3.78947368 L13.8547368,6.31578947 L9.43368421,6.31578947 L9.43368421,3.78947368 L13.8547368,3.78947368 Z M2.15789474,15.1578947 C1.80421053,15.1578947 1.52631579,14.88 1.52631579,14.5263158 L1.52631579,8.21052632 C1.52631579,7.85684211 1.80421053,7.57894737 2.15789474,7.57894737 L8.17052632,7.57894737 L8.17052632,7.70526316 C7.18526316,8.64 6.57894737,9.92842105 6.57894737,11.3684211 C6.57894737,12.8842105 7.23578947,14.2231579 8.29684211,15.1578947 L2.15789474,15.1578947 Z M11.6315789,15.1578947 C9.53473684,15.1578947 7.84210526,13.4652632 7.84210526,11.3684211 C7.84210526,9.27157895 9.53473684,7.57894737 11.6315789,7.57894737 C13.7284211,7.57894737 15.4210526,9.27157895 15.4210526,11.3684211 C15.4210526,13.4652632 13.7284211,15.1578947 11.6315789,15.1578947 Z M21.7368421,14.5263158 C21.7368421,14.88 21.4589474,15.1578947 21.1052632,15.1578947 L14.9663158,15.1578947 C16.0273684,14.2231579 16.6842105,12.8842105 16.6842105,11.3684211 C16.6842105,9.92842105 16.0778947,8.64 15.0926316,7.70526316 L15.0926316,7.57894737 L21.1052632,7.57894737 C21.4589474,7.57894737 21.7368421,7.85684211 21.7368421,8.21052632 L21.7368421,14.5263158 Z" id="Shape"></path>
                        <path d="M11.6315789,9.17052632 C10.4442105,9.17052632 9.48421053,10.1305263 9.48421053,11.3178947 C9.48421053,12.5052632 10.4442105,13.4652632 11.6315789,13.4652632 C12.8189474,13.4652632 13.7789474,12.5052632 13.7789474,11.3178947 C13.7789474,10.1305263 12.8189474,9.17052632 11.6315789,9.17052632 Z M11.6315789,12.1768421 C11.1515789,12.1768421 10.7473684,11.7726316 10.7473684,11.2926316 C10.7473684,10.8126316 11.1515789,10.4084211 11.6315789,10.4084211 C12.1115789,10.4084211 12.5157895,10.8126316 12.5157895,11.2926316 C12.5157895,11.7726316 12.1115789,12.1768421 11.6315789,12.1768421 Z" id="Shape"></path>
                        <circle id="Oval" cx="19.2105263" cy="11.3684211" r="1"></circle>
                    </g>
                </g>
            </g>
        </g>
    </g>
</svg>