<?xml version="1.0" encoding="UTF-8"?>
<svg width="14px" height="14px" viewBox="0 0 14 14" version="1.1" xmlns="http://www.w3.org/2000/svg" xmlns:xlink="http://www.w3.org/1999/xlink">
    <!-- Generator: Sketch 48.2 (47327) - http://www.bohemiancoding.com/sketch -->
    <title>ic_stars_circle</title>
    <desc>Created with Sketch.</desc>
    <defs></defs>
    <g id="Technostor-Product-Page-Mobile" stroke="none" stroke-width="1" fill="none" fill-rule="evenodd" transform="translate(-17.000000, -256.000000)">
        <g id="Info" transform="translate(0.000000, 120.000000)">
            <g id="label" transform="translate(10.000000, 133.000000)">
                <g id="ic_stars_circle" transform="translate(6.000000, 2.000000)">
                    <polygon id="Bounds" points="0 0 16 0 16 16 0 16"></polygon>
                    <path d="M7.44,6.88 C7.44,7.38133584 7.31200128,7.765332 7.056,8.032 C6.79999872,8.298668 6.45600216,8.432 6.024,8.432 C5.59199784,8.432 5.24800128,8.298668 4.992,8.032 C4.73599872,7.765332 4.608,7.38133584 4.608,6.88 C4.608,6.37866416 4.73599872,5.994668 4.992,5.728 C5.24800128,5.461332 5.59199784,5.328 6.024,5.328 C6.45600216,5.328 6.79999872,5.461332 7.056,5.728 C7.31200128,5.994668 7.44,6.37866416 7.44,6.88 Z M6.536,6.88 C6.536,6.60799864 6.48800048,6.41066728 6.392,6.288 C6.29599952,6.16533272 6.17333408,6.104 6.024,6.104 C5.86933256,6.104 5.7453338,6.16533272 5.652,6.288 C5.5586662,6.41066728 5.512,6.60799864 5.512,6.88 C5.512,7.15200136 5.5586662,7.35066604 5.652,7.476 C5.7453338,7.60133396 5.86933256,7.664 6.024,7.664 C6.17333408,7.664 6.29599952,7.60133396 6.392,7.476 C6.48800048,7.35066604 6.536,7.15200136 6.536,6.88 Z M9,5.456 L10.112,5.456 L6.984,11 L5.872,11 L9,5.456 Z M11.392,9.576 C11.392,10.0773358 11.2640013,10.461332 11.008,10.728 C10.7519987,10.994668 10.4080022,11.128 9.976,11.128 C9.54399784,11.128 9.20000128,10.994668 8.944,10.728 C8.68799872,10.461332 8.56,10.0773358 8.56,9.576 C8.56,9.07466416 8.68799872,8.690668 8.944,8.424 C9.20000128,8.157332 9.54399784,8.024 9.976,8.024 C10.4080022,8.024 10.7519987,8.157332 11.008,8.424 C11.2640013,8.690668 11.392,9.07466416 11.392,9.576 Z M7.99333333,1.33333333 C11.68,1.33333333 14.6666667,4.32 14.6666667,8 C14.6666667,11.68 11.68,14.6666667 7.99333333,14.6666667 C4.31333333,14.6666667 1.33333333,11.68 1.33333333,8 C1.33333333,4.32 4.31333333,1.33333333 7.99333333,1.33333333 Z M10.488,9.576 C10.488,9.30399864 10.4400005,9.10666728 10.344,8.984 C10.2479995,8.86133272 10.1253341,8.8 9.976,8.8 C9.82133256,8.8 9.6973338,8.86133272 9.604,8.984 C9.5106662,9.10666728 9.464,9.30399864 9.464,9.576 C9.464,9.84800136 9.5106662,10.046666 9.604,10.172 C9.6973338,10.297334 9.82133256,10.36 9.976,10.36 C10.1253341,10.36 10.2479995,10.297334 10.344,10.172 C10.4400005,10.046666 10.488,9.84800136 10.488,9.576 Z" id="%" fill="#FFFFFF"></path>
                </g>
            </g>
        </g>
    </g>
</svg>