<?xml version="1.0" encoding="UTF-8"?>
<svg width="14px" height="14px" viewBox="0 0 14 14" version="1.1" xmlns="http://www.w3.org/2000/svg" xmlns:xlink="http://www.w3.org/1999/xlink">
    <!-- Generator: Sketch 48.2 (47327) - http://www.bohemiancoding.com/sketch -->
    <title>ic_local_offer</title>
    <desc>Created with Sketch.</desc>
    <defs></defs>
    <g id="Technostor-Product-Page-Mobile" stroke="none" stroke-width="1" fill="none" fill-rule="evenodd" transform="translate(-179.000000, -226.000000)">
        <g id="Info" transform="translate(0.000000, 120.000000)">
            <g id="label" transform="translate(171.000000, 103.000000)">
                <g id="ic_local_offer" transform="translate(15.000000, 10.116071) scale(-1, 1) translate(-15.000000, -10.116071) translate(7.000000, 2.116071)">
                    <polygon id="Bounds" points="0 0 16 0 16 16 0 16"></polygon>
                    <path d="M14.2733333,7.72 L8.27333333,1.72 C8.03333333,1.48 7.7,1.33333333 7.33333333,1.33333333 L2.66666667,1.33333333 C1.93333333,1.33333333 1.33333333,1.93333333 1.33333333,2.66666667 L1.33333333,7.33333333 C1.33333333,7.7 1.48,8.03333333 1.72666667,8.28 L7.72666667,14.28 C7.96666667,14.52 8.3,14.6666667 8.66666667,14.6666667 C9.03333333,14.6666667 9.36666667,14.52 9.60666667,14.2733333 L14.2733333,9.60666667 C14.52,9.36666667 14.6666667,9.03333333 14.6666667,8.66666667 C14.6666667,8.3 14.5133333,7.96 14.2733333,7.72 L14.2733333,7.72 Z M3.66666667,4.66666667 C3.11333333,4.66666667 2.66666667,4.22 2.66666667,3.66666667 C2.66666667,3.11333333 3.11333333,2.66666667 3.66666667,2.66666667 C4.22,2.66666667 4.66666667,3.11333333 4.66666667,3.66666667 C4.66666667,4.22 4.22,4.66666667 3.66666667,4.66666667 L3.66666667,4.66666667 Z" id="Icon" fill="#FFFFFF"></path>
                </g>
            </g>
        </g>
    </g>
</svg>