<?xml version="1.0" encoding="UTF-8"?>
<svg width="20px" height="21px" viewBox="0 0 20 21" version="1.1" xmlns="http://www.w3.org/2000/svg" xmlns:xlink="http://www.w3.org/1999/xlink">
    <!-- Generator: Sketch 48.2 (47327) - http://www.bohemiancoding.com/sketch -->
    <title>ico14</title>
    <desc>Created with Sketch.</desc>
    <defs></defs>
    <g id="Technostor-Mobile-Menu" stroke="none" stroke-width="1" fill="none" fill-rule="evenodd" transform="translate(-15.000000, -774.000000)">
        <g id="Catalog" transform="translate(0.000000, 60.000000)">
            <g id="Drop-Menu-Copy-15" transform="translate(0.000000, 700.000000)">
                <g id="ico14" transform="translate(10.000000, 10.000000)">
                    <rect id="Rectangle-4" fill-opacity="0" fill="#FF0000" x="0" y="0" width="30" height="30"></rect>
                    <g id="noun_1455750_cc" transform="translate(5.000000, 4.000000)" fill="#333333" fill-rule="nonzero">
                        <path d="M5.50632911,9 C5.78481013,9 6.01265823,8.77777778 6.01265823,8.50617284 C6.01265823,7.19753086 7.12658228,5.98765432 8.34177215,5.98765432 L11.6582278,5.98765432 C12.8734177,5.98765432 13.9873418,7.19753086 13.9873418,8.50617284 C13.9873418,8.77777778 14.2151899,9 14.4936709,9 C14.7721519,9 15,8.77777778 15,8.50617284 C15,6.62962963 13.4303797,5 11.6582278,5 L8.34177215,5 C6.56962025,5 5,6.62962963 5,8.50617284 C5,8.77777778 5.2278481,9 5.50632911,9 Z" id="Shape"></path>
                        <path d="M1.275,20.1058394 L1.975,20.1058394 L1.975,20.4890511 C1.975,20.770073 2.2,21 2.475,21 L17.55,21 C17.825,21 18.05,20.770073 18.05,20.4890511 L18.05,20.1058394 L18.75,20.1058394 C19.45,20.1058394 20,19.5437956 20,18.8284672 L20,14.7408759 C20,14.0255474 19.45,13.4635036 18.75,13.4635036 L18.05,13.4635036 L18.05,7.66423358 C18.05,4.70072993 15.7,2.29927007 12.8,2.29927007 L12.35,2.29927007 C12.3,1.02189781 11.275,0 10,0 C8.75,0 7.7,1.02189781 7.65,2.29927007 L7.2,2.29927007 C4.3,2.29927007 1.95,4.70072993 1.95,7.66423358 L1.95,13.4890511 L1.25,13.4890511 C0.55,13.4890511 0,14.0510949 0,14.7664234 L0,18.8540146 C0.025,19.5437956 0.6,20.1058394 1.275,20.1058394 Z M18.725,14.4854015 C18.85,14.4854015 18.975,14.6131387 18.975,14.7408759 L18.975,18.8284672 C18.975,18.9562044 18.85,19.0839416 18.725,19.0839416 L18.025,19.0839416 L18.025,14.4854015 L18.725,14.4854015 Z M10,1.02189781 C10.7,1.02189781 11.275,1.58394161 11.325,2.29927007 L8.675,2.29927007 C8.725,1.58394161 9.3,1.02189781 10,1.02189781 Z M2.975,7.66423358 C2.975,5.26277372 4.875,3.32116788 7.225,3.32116788 L12.8,3.32116788 C15.15,3.32116788 17.05,5.26277372 17.05,7.66423358 L17.05,20.0036496 L2.975,20.0036496 L2.975,7.66423358 Z M1.025,14.7408759 C1.025,14.6131387 1.15,14.4854015 1.275,14.4854015 L1.975,14.4854015 L1.975,19.0839416 L1.275,19.0839416 C1.15,19.0839416 1.025,18.9562044 1.025,18.8284672 L1.025,14.7408759 Z" id="Shape"></path>
                        <path d="M14.4565217,13 L5.54347826,13 C5.24456522,13 5,13.2268908 5,13.5042017 L5,16.7310924 C5,17.9915966 6.08695652,19 7.44565217,19 L12.5543478,19 C13.9130435,19 15,17.9915966 15,16.7310924 L15,13.5042017 C15,13.2268908 14.7554348,13 14.4565217,13 Z M14,16.7341772 C14,17.443038 13.3888889,18 12.6111111,18 L7.38888889,18 C6.61111111,18 6,17.443038 6,16.7341772 L6,14 L14,14 L14,16.7341772 Z" id="Shape"></path>
                    </g>
                </g>
            </g>
        </g>
    </g>
</svg>