<?xml version="1.0" encoding="UTF-8"?>
<svg width="22px" height="16px" viewBox="0 0 22 16" version="1.1" xmlns="http://www.w3.org/2000/svg" xmlns:xlink="http://www.w3.org/1999/xlink">
    <!-- Generator: Sketch 48.2 (47327) - http://www.bohemiancoding.com/sketch -->
    <title>ico4</title>
    <desc>Created with Sketch.</desc>
    <defs></defs>
    <g id="Technostor-Mobile-Menu" stroke="none" stroke-width="1" fill="none" fill-rule="evenodd" transform="translate(-14.000000, -277.000000)">
        <g id="Catalog" transform="translate(0.000000, 60.000000)">
            <g id="Drop-Menu-Copy-4" transform="translate(0.000000, 200.000000)">
                <g id="ico4" transform="translate(10.000000, 10.000000)">
                    <rect id="Rectangle-4" fill-opacity="0" fill="#FF0000" x="0" y="0" width="30" height="30"></rect>
                    <g id="noun_943961_cc" transform="translate(4.000000, 7.000000)" fill="#333333" fill-rule="nonzero">
                        <path d="M21.3888889,0 L0.611111111,0 C0.273533333,0 0,0.275446154 0,0.615384615 L0,12.3076923 C0,12.6476308 0.273533333,12.9230769 0.611111111,12.9230769 L7.94444444,12.9230769 L7.94444444,14.7692308 L3.66666667,14.7692308 C3.32908889,14.7692308 3.05555556,15.0446769 3.05555556,15.3846154 C3.05555556,15.7245538 3.32908889,16 3.66666667,16 L18.3333333,16 C18.6709111,16 18.9444444,15.7245538 18.9444444,15.3846154 C18.9444444,15.0446769 18.6709111,14.7692308 18.3333333,14.7692308 L14.0555556,14.7692308 L14.0555556,12.9230769 L21.3888889,12.9230769 C21.7264667,12.9230769 22,12.6476308 22,12.3076923 L22,0.615384615 C22,0.275446154 21.7264667,0 21.3888889,0 Z M12.8333333,14.7692308 L9.16666667,14.7692308 L9.16666667,12.9230769 L12.8333333,12.9230769 L12.8333333,14.7692308 Z M20.6036305,11.4746094 L1.51470588,11.4746094 L1.51470588,1.54365809 L20.6036305,1.54365809 L20.6036305,11.4746094 Z" id="Shape"></path>
                    </g>
                </g>
            </g>
        </g>
    </g>
</svg>