<?xml version="1.0" encoding="UTF-8"?>
<svg width="88px" height="88px" viewBox="0 0 88 88" version="1.1" xmlns="http://www.w3.org/2000/svg" xmlns:xlink="http://www.w3.org/1999/xlink">
    <!-- Generator: Sketch 48.2 (47327) - http://www.bohemiancoding.com/sketch -->
    <title>ic_account_circle</title>
    <desc>Created with Sketch.</desc>
    <defs>
        <path d="M24,4 C12.96,4 4,12.96 4,24 C4,35.04 12.96,44 24,44 C35.04,44 44,35.04 44,24 C44,12.96 35.04,4 24,4 L24,4 Z M24,10 C27.32,10 30,12.68 30,16 C30,19.32 27.32,22 24,22 C20.68,22 18,19.32 18,16 C18,12.68 20.68,10 24,10 L24,10 Z M24,38.4 C19,38.4 14.58,35.84 12,31.96 C12.06,27.98 20,25.8 24,25.8 C27.98,25.8 35.94,27.98 36,31.96 C33.42,35.84 29,38.4 24,38.4 L24,38.4 Z" id="path-1"></path>
        <filter x="-93.8%" y="-93.8%" width="287.5%" height="287.5%" filterUnits="objectBoundingBox" id="filter-2">
            <feOffset dx="0" dy="0" in="SourceAlpha" result="shadowOffsetOuter1"></feOffset>
            <feGaussianBlur stdDeviation="12.5" in="shadowOffsetOuter1" result="shadowBlurOuter1"></feGaussianBlur>
            <feColorMatrix values="0 0 0 0 0   0 0 0 0 0   0 0 0 0 0  0 0 0 0.15 0" type="matrix" in="shadowBlurOuter1"></feColorMatrix>
        </filter>
    </defs>
    <g id="Technostor-Mobile-Menu" stroke="none" stroke-width="1" fill="none" fill-rule="evenodd" transform="translate(-7.000000, -68.000000)">
        <g id="ic_account_circle" transform="translate(27.000000, 88.000000)">
            <polygon id="Bounds" points="0 0 48 0 48 48 0 48"></polygon>
            <g id="Icon">
                <use fill="black" fill-opacity="1" filter="url(#filter-2)" xlink:href="#path-1"></use>
                <use fill="#FFFFFF" fill-rule="evenodd" xlink:href="#path-1"></use>
            </g>
        </g>
    </g>
</svg>