<?xml version="1.0" encoding="UTF-8"?>
<svg width="16px" height="18px" viewBox="0 0 16 18" version="1.1" xmlns="http://www.w3.org/2000/svg" xmlns:xlink="http://www.w3.org/1999/xlink">
    <!-- Generator: Sketch 48.2 (47327) - http://www.bohemiancoding.com/sketch -->
    <title>point</title>
    <desc>Created with Sketch.</desc>
    <defs></defs>
    <g id="Technostor-Product-Page" stroke="none" stroke-width="1" fill="none" fill-rule="evenodd" transform="translate(-977.000000, -666.000000)">
        <g id="item-main" transform="translate(135.000000, 206.000000)" fill="#1AA758" fill-rule="nonzero">
            <g id="Group-2" transform="translate(835.000000, 397.000000)">
                <path d="M17.8252788,68.9182156 C17.8252788,67.3420074 16.5464684,66.0929368 15,66.0929368 C13.4535316,66.0929368 12.1747212,67.3717472 12.1747212,68.9182156 C12.1747212,70.4944238 13.4535316,71.7434944 15,71.7434944 C16.5464684,71.7434944 17.8252788,70.464684 17.8252788,68.9182156 Z M13.3643123,68.9182156 C13.3643123,67.9962825 14.1078067,67.2825279 15,67.2825279 C15.8921933,67.2825279 16.6356877,68.0260223 16.6356877,68.9182156 C16.6356877,69.8104089 15.8921933,70.5539033 15,70.5539033 C14.1078067,70.5539033 13.3643123,69.8104089 13.3643123,68.9182156 Z M18.1821561,75.1040892 C19.3717472,73.4684015 20.5018587,71.2081784 20.5018587,68.5018587 C20.5018587,65.4684015 18.0334572,63 15,63 C11.9665428,63 9.49814126,65.4684015 9.49814126,68.5018587 C9.49814126,71.2379182 10.6282528,73.4684015 11.8178439,75.1040892 C9.34944238,75.4907063 7,76.3531599 7,77.8698885 C7,79.8327138 11.0148699,80.8438662 15,80.8438662 C18.9851301,80.8438662 23,79.8327138 23,77.8698885 C23,76.3531599 20.6505576,75.4907063 18.1821561,75.1040892 Z M10.6877323,68.5018587 C10.6877323,66.1226766 12.6208178,64.1895911 15,64.1895911 C17.3791822,64.1895911 19.3122677,66.1226766 19.3122677,68.5018587 C19.3122677,72.7546468 16.070632,75.8475836 15,76.7695167 C13.929368,75.8475836 10.6877323,72.7546468 10.6877323,68.5018587 Z M15,79.6542751 C10.598513,79.6542751 8.18959108,78.464684 8.18959108,77.8698885 C8.18959108,77.4535316 9.55762082,76.5315985 12.6802974,76.204461 C13.66171,77.3345725 14.5539033,77.9591078 14.6133829,78.0185874 C14.732342,78.1078067 14.8513011,78.1375465 14.9702602,78.1375465 C15.0892193,78.1375465 15.2081784,78.1078067 15.3271375,78.0185874 C15.4163569,77.9591078 16.2788104,77.3048327 17.260223,76.204461 C20.3828996,76.5315985 21.7509294,77.4535316 21.7509294,77.8698885 C21.8104089,78.464684 19.401487,79.6542751 15,79.6542751 Z" id="point"></path>
            </g>
        </g>
    </g>
</svg>