<?xml version="1.0" encoding="UTF-8"?>
<svg width="11px" height="13px" viewBox="0 0 11 13" version="1.1" xmlns="http://www.w3.org/2000/svg" xmlns:xlink="http://www.w3.org/1999/xlink">
    <!-- Generator: Sketch 48.2 (47327) - http://www.bohemiancoding.com/sketch -->
    <title>ic_find_in_page</title>
    <desc>Created with Sketch.</desc>
    <defs></defs>
    <g id="Technostor-Product-Page-Admin" stroke="none" stroke-width="1" fill="none" fill-rule="evenodd" transform="translate(-472.000000, -234.000000)">
        <g id="item-main" transform="translate(135.000000, 206.000000)">
            <g id="Button-Copy-3" transform="translate(321.000000, 20.000000)">
                <g id="ic_find_in_page" transform="translate(13.000000, 7.000000)">
                    <polygon id="Bounds" points="0 0 16 0 16 16 0 16"></polygon>
                    <path d="M14,12.4335 L14,4.9 L9.875,1 L4.375,1 C3.61875,1 3.006875,1.585 3.006875,2.3 L3,12.7 C3,13.415 3.611875,14 4.368125,14 L12.625,14 C12.934375,14 13.209375,13.9025 13.443125,13.74 L10.3975,10.8605 C9.8475,11.1985 9.20125,11.4 8.5,11.4 C6.6025,11.4 5.0625,9.944 5.0625,8.15 C5.0625,6.356 6.6025,4.9 8.5,4.9 C10.3975,4.9 11.9375,6.356 11.9375,8.15 C11.9375,8.813 11.724375,9.424 11.366875,9.9375 L14,12.4335 L14,12.4335 Z M6.4375,8.15 C6.4375,9.229 7.35875,10.1 8.5,10.1 C9.64125,10.1 10.5625,9.229 10.5625,8.15 C10.5625,7.071 9.64125,6.2 8.5,6.2 C7.35875,6.2 6.4375,7.071 6.4375,8.15 L6.4375,8.15 Z" id="Icon" fill="#000000"></path>
                </g>
            </g>
        </g>
    </g>
</svg>