<?xml version="1.0" encoding="UTF-8"?>
<svg width="16px" height="14px" viewBox="0 0 16 14" version="1.1" xmlns="http://www.w3.org/2000/svg" xmlns:xlink="http://www.w3.org/1999/xlink">
    <!-- Generator: Sketch 48.2 (47327) - http://www.bohemiancoding.com/sketch -->
    <title>Shape</title>
    <desc>Created with Sketch.</desc>
    <defs></defs>
    <g id="Technostor-Listing-List" stroke="none" stroke-width="1" fill="none" fill-rule="evenodd" transform="translate(-185.000000, -4053.000000)" opacity="0.497622283">
        <g id="Footer" transform="translate(0.000000, 3740.000000)" fill="#B1A598" fill-rule="nonzero">
            <g id="social" transform="translate(135.000000, 303.000000)">
                <g id="twitter" transform="translate(42.000000, 0.000000)">
                    <path d="M22.2007273,12.2516364 C22.8641429,11.8274335 23.3528077,11.1787199 23.5774545,10.424 C22.9669604,10.8070426 22.2931903,11.0784222 21.5876364,11.2254545 C21.0108715,10.5651165 20.1778432,10.1849016 19.3010909,10.1818182 C17.5701818,10.1818182 16.1687273,11.6618182 16.1687273,13.4865455 C16.1687273,13.7454545 16.1949091,13.9978182 16.2487273,14.2385455 C13.6450909,14.1003636 11.3367273,12.7869091 9.79054545,10.7861818 C9.51099937,11.2953703 9.36512084,11.867124 9.36654545,12.448 C9.36654545,13.5941818 9.91927273,14.6058182 10.7607273,15.1992727 C10.2603566,15.1814026 9.77227217,15.0394508 9.34036364,14.7861818 L9.34036364,14.8269091 C9.34036364,16.4283636 10.4196364,17.7650909 11.8552727,18.0669091 C11.5866454,18.1451626 11.3081548,18.1843521 11.0283636,18.1832727 C10.8269091,18.1832727 10.6298182,18.1636364 10.4392727,18.1250909 C10.8378182,19.4370909 11.9949091,20.3941818 13.3665455,20.4196364 C12.2930909,21.3061818 10.9425455,21.8334545 9.47490909,21.8334545 C9.2250044,21.8338961 8.9753129,21.8188369 8.72727273,21.7883636 C10.143145,22.753637 11.8165765,23.2708196 13.5301818,23.2727273 C19.2945455,23.2727273 22.4443636,18.2370909 22.4443636,13.8698182 C22.4443636,13.7265455 22.4429091,13.5832727 22.4370909,13.4429091 C23.0557052,12.9697053 23.5849622,12.3899608 24,11.7309091 C23.4311303,11.9972794 22.8239901,12.1727464 22.2007273,12.2509091 L22.2007273,12.2516364 Z" id="Shape"></path>
                </g>
            </g>
        </g>
    </g>
</svg>